<svg width="53" height="53" viewBox="0 0 53 53" fill="none" xmlns="http://www.w3.org/2000/svg">
<path d="M20.8998 3.86113C19.3057 4.3166 18.3223 5.69336 18.4568 7.31855C18.55 8.54004 19.3471 9.65801 20.4443 10.1135L20.9102 10.2998V11.9354C20.9102 13.5295 20.9205 13.5709 21.169 13.8193C21.3242 13.985 21.5416 14.0781 21.7383 14.0781C21.935 14.0781 22.1523 13.985 22.3076 13.8193C22.5561 13.5709 22.5664 13.5295 22.5664 11.9354V10.2998L23.0322 10.1135C23.6947 9.83398 24.3779 9.19219 24.7092 8.50898C24.9576 8.00176 24.999 7.80508 24.9887 7.03906C24.9887 6.06602 24.8023 5.54844 24.2227 4.84453C23.5498 4.02676 21.966 3.56094 20.8998 3.86113ZM22.5664 5.72441C23.6326 6.43867 23.5602 7.9293 22.4215 8.47793C21.8729 8.74707 21.6037 8.74707 21.0758 8.48828C20.2373 8.08457 19.9164 7.19434 20.3098 6.41797C20.7652 5.51738 21.8004 5.19648 22.5664 5.72441Z" fill="#262626"/>
<path d="M30.299 3.84126C28.9843 4.15181 27.9595 5.31119 27.7939 6.67759C27.6076 8.10611 28.5806 9.72095 29.8746 10.1454L30.2265 10.2696V11.9155C30.2265 13.5303 30.2369 13.5717 30.4853 13.8202C30.7959 14.1411 31.241 14.1514 31.6136 13.8616L31.8828 13.6545V11.9776V10.3006L32.3693 10.104C34.7088 9.14126 35.0711 5.79771 33.0007 4.36919C32.1933 3.82056 31.2203 3.62388 30.299 3.84126ZM31.8828 5.7149C32.6695 6.25318 32.8869 6.98814 32.4832 7.76451C32.0484 8.61333 30.9408 8.93423 30.2369 8.4063C29.2535 7.68169 29.2535 6.29458 30.2472 5.69419C30.7234 5.40435 31.4377 5.4147 31.8828 5.7149Z" fill="#262626"/>
<path d="M19.0469 16.1915C17.6391 16.5849 16.6143 17.5579 16.1588 18.9243C15.9518 19.5454 15.9414 19.7628 15.9414 26.5016C15.9414 33.2405 15.9518 33.4579 16.1588 34.079C16.6453 35.5179 17.7633 36.5323 19.2539 36.8429C19.668 36.936 21.7279 36.9567 26.9141 36.936L34.0049 36.905L34.5742 36.6669C35.8164 36.1597 36.6652 35.2384 37.0586 33.9651C37.2553 33.344 37.2656 32.9921 37.2656 26.5016C37.2656 20.0112 37.2553 19.6593 37.0586 19.0382C36.6652 17.7649 35.8164 16.8436 34.5742 16.3364L34.0049 16.0983L26.7588 16.0776C21.1793 16.0673 19.4092 16.088 19.0469 16.1915ZM33.7357 17.8684C34.1084 17.972 34.4293 18.1686 34.7812 18.5102C35.6301 19.3384 35.6094 19.152 35.6094 26.5016C35.6094 33.8306 35.6301 33.6339 34.7812 34.4724C33.9428 35.3212 34.1602 35.3005 26.6035 35.3005C19.2436 35.3005 19.2953 35.3005 18.5189 34.6069C18.2912 34.3999 18.0014 34.0376 17.8771 33.8099C17.6494 33.3854 17.6494 33.3751 17.6494 26.5016C17.6494 19.6386 17.6494 19.6179 17.8771 19.2038C18.2084 18.5931 18.757 18.1169 19.3781 17.8995C19.8854 17.7235 20.3926 17.7132 26.5621 17.7028C32.2658 17.7028 33.2699 17.7235 33.7357 17.8684Z" fill="#262626"/>
<path d="M23.5602 21.759C23.2911 22.0281 22.8149 22.9908 21.4278 26.1273C19.9268 29.533 19.6577 30.2162 19.7198 30.5061C19.7922 30.9201 20.1131 31.1582 20.61 31.1582C21.0862 31.1582 21.2622 30.9615 21.7383 29.8746L22.0799 29.0879H24.4815H26.8831L27.2247 29.885C27.6387 30.8891 27.8768 31.1582 28.3323 31.1582C28.8084 31.1582 29.0362 31.0236 29.1915 30.651C29.3571 30.2473 29.4399 30.4646 27.3696 25.8168C25.4235 21.4484 25.4131 21.4277 24.4711 21.4277C23.9743 21.4277 23.8708 21.4691 23.5602 21.759ZM25.351 25.558C25.7651 26.5207 26.0756 27.3592 26.0446 27.4213C25.9411 27.5766 23.0219 27.5766 22.9288 27.4213C22.8356 27.2867 24.3366 23.8086 24.4815 23.8086C24.5436 23.8086 24.937 24.5953 25.351 25.558Z" fill="#262626"/>
<path d="M31.0444 21.6238L30.7959 21.8205L30.7649 26.0543C30.7545 28.373 30.7649 30.3813 30.7959 30.5158C31.0133 31.3854 32.3383 31.3854 32.5557 30.5158C32.5867 30.3813 32.5971 28.373 32.5867 26.0543L32.5557 21.8205L32.3073 21.6238C32.1623 21.51 31.9035 21.4271 31.6758 21.4271C31.4481 21.4271 31.1893 21.51 31.0444 21.6238Z" fill="#262626"/>
<path d="M44.8534 18.6246C43.9425 18.9351 43.1454 19.7011 42.8349 20.5603L42.7106 20.9122H41.0751C39.4706 20.9122 39.4292 20.9226 39.1808 21.171C38.8392 21.5023 38.8392 21.9785 39.1808 22.3097C39.4292 22.5581 39.4706 22.5685 41.0647 22.5685H42.7003L42.8866 23.0343C43.1661 23.6968 43.8079 24.38 44.4911 24.7113C44.9983 24.9597 45.195 25.0011 45.961 24.9908C46.6442 24.9908 46.9444 24.939 47.3067 24.763C48.0728 24.3904 48.5179 23.9556 48.8802 23.2206C49.17 22.6203 49.2218 22.4236 49.2218 21.73C49.2218 21.0261 49.1804 20.8605 48.8595 20.229C48.0935 18.7384 46.4476 18.0759 44.8534 18.6246ZM46.5821 20.3119C47.9796 21.0261 47.7829 22.8583 46.2612 23.2931C45.2054 23.6037 44.0667 22.4132 44.3876 21.3367C44.5843 20.6845 45.2778 20.1359 45.961 20.0945C46.0542 20.0841 46.3337 20.1876 46.5821 20.3119Z" fill="#262626"/>
<path d="M5.80723 18.8512C5.12403 19.1203 4.38907 19.8346 4.03712 20.5488C3.67481 21.3045 3.68516 22.5053 4.04747 23.292C4.62716 24.5031 5.70372 25.1967 7.03907 25.207C7.72227 25.207 7.91895 25.1553 8.51934 24.8654C9.28536 24.4824 9.84434 23.9131 10.1031 23.2195L10.2791 22.7744H11.925C13.5295 22.7744 13.5709 22.7641 13.8193 22.5156C14.1402 22.2051 14.1506 21.76 13.8607 21.3873L13.6537 21.1182H11.9768H10.2998L10.1031 20.6316C9.83399 19.9898 9.19219 19.3066 8.54005 18.965C7.80509 18.5924 6.59395 18.5406 5.80723 18.8512ZM7.76368 20.5178C8.61251 20.9525 8.93341 22.0602 8.40548 22.7641C8.06387 23.2299 7.567 23.499 7.04942 23.499C5.58985 23.499 4.9377 21.7496 6.02462 20.7352C6.54219 20.2486 7.09083 20.1762 7.76368 20.5178Z" fill="#262626"/>
<path d="M45.0499 27.8982C44.0458 28.1777 43.1452 28.9955 42.8554 29.8754L42.7311 30.2273H41.0853C39.4704 30.2273 39.429 30.2377 39.1806 30.4861C38.8597 30.7967 38.8493 31.2418 39.1392 31.6144L39.3462 31.8836H41.0231H42.7001L42.8968 32.3701C43.6835 34.2851 46.2093 34.9787 47.9069 33.7469C48.7972 33.1051 49.3561 31.8318 49.2319 30.7553C48.9835 28.6953 47.0167 27.3496 45.0499 27.8982ZM46.7683 29.7098C48.0311 30.4861 47.586 32.4943 46.1058 32.6703C45.1741 32.7945 44.2218 31.8422 44.346 30.9105C44.4806 29.7926 45.8159 29.1301 46.7683 29.7098Z" fill="#262626"/>
<path d="M6.26294 28.0419C5.27954 28.3007 4.56528 28.8804 4.12017 29.7809C3.83032 30.3813 3.77856 30.578 3.77856 31.2716C3.77856 31.9755 3.81997 32.1411 4.14087 32.7725C5.40376 35.2466 9.05786 35.112 10.1137 32.5552L10.3 32.0893H11.9356C13.5297 32.0893 13.5711 32.079 13.8196 31.8306C14.1612 31.4993 14.1612 31.0231 13.8196 30.6919C13.5711 30.4434 13.5297 30.4331 11.9356 30.4331H10.3L10.1137 29.9673C9.6479 28.839 8.51958 28.0522 7.26704 27.9901C6.88403 27.9694 6.43892 27.9901 6.26294 28.0419ZM7.95024 29.9466C8.31255 30.195 8.69556 30.8679 8.69556 31.2612C8.69556 31.6649 8.29185 32.3792 7.93989 32.5966C7.39126 32.9278 6.94614 32.9589 6.41821 32.6897C5.15532 32.0479 5.15532 30.4745 6.41821 29.8327C6.95649 29.5532 7.41196 29.5946 7.95024 29.9466Z" fill="#262626"/>
<path d="M21.3863 39.14L21.1172 39.347V41.024V42.701L20.6306 42.8976C18.7156 43.6844 18.022 46.2101 19.2539 47.9078C19.8957 48.798 21.1689 49.357 22.2455 49.2328C24.2847 48.9947 25.6097 47.1004 25.1129 45.1439C24.8334 44.0674 24.0466 43.1564 23.1254 42.8562L22.7734 42.732V41.0861C22.7734 39.4713 22.7631 39.4299 22.5146 39.1814C22.2041 38.8605 21.7589 38.8502 21.3863 39.14ZM22.7631 44.5953C24.0777 45.558 23.5187 47.5144 21.9349 47.5144C21.1379 47.5144 20.4236 46.8933 20.3304 46.1066C20.1648 44.8437 21.7693 43.85 22.7631 44.5953Z" fill="#262626"/>
<path d="M30.6925 39.1816C30.4441 39.4301 30.4337 39.4715 30.4337 41.0656V42.7012L29.9679 42.8875C29.3054 43.167 28.6222 43.8088 28.2909 44.492C28.0425 44.9992 28.0011 45.1959 28.0114 45.9619C28.0114 46.6451 28.0632 46.9453 28.2392 47.3076C28.6118 48.0736 29.0466 48.5187 29.7816 48.8811C30.3819 49.1709 30.5786 49.2227 31.2722 49.2227C31.9761 49.2227 32.1417 49.1812 32.7732 48.8604C35.2472 47.5975 35.1126 43.9434 32.5558 42.8875L32.09 42.7012V41.0656C32.09 39.4715 32.0796 39.4301 31.8312 39.1816C31.6759 39.016 31.4585 38.9229 31.2618 38.9229C31.0651 38.9229 30.8478 39.016 30.6925 39.1816ZM31.945 44.523C32.7732 44.9164 33.0837 45.7963 32.6903 46.583C32.0796 47.7838 30.5476 47.8459 29.8747 46.6969C29.4296 45.9205 29.7505 44.9268 30.589 44.5127C31.1169 44.2539 31.3964 44.2539 31.945 44.523Z" fill="#262626"/>
</svg>
