<svg width="13" height="13" viewBox="0 0 13 13" fill="none" xmlns="http://www.w3.org/2000/svg">
<g clip-path="url(#clip0_100_184)">
<path d="M5.12627 0.94707C4.73526 1.05879 4.49405 1.39648 4.52706 1.79512C4.54991 2.09473 4.74541 2.36895 5.01456 2.48066L5.12881 2.52637V2.92754C5.12881 3.31855 5.13135 3.32871 5.19229 3.38965C5.23038 3.43027 5.2837 3.45312 5.33194 3.45312C5.38018 3.45312 5.4335 3.43027 5.47159 3.38965C5.53252 3.32871 5.53506 3.31855 5.53506 2.92754V2.52637L5.64932 2.48066C5.81182 2.41211 5.9794 2.25469 6.06065 2.08711C6.12159 1.9627 6.13174 1.91445 6.1292 1.72656C6.1292 1.48789 6.0835 1.36094 5.94131 1.18828C5.77627 0.987695 5.3878 0.873438 5.12627 0.94707ZM5.53506 1.4041C5.79659 1.5793 5.77881 1.94492 5.49952 2.07949C5.36495 2.14551 5.29893 2.14551 5.16944 2.08203C4.96377 1.98301 4.88506 1.76465 4.98155 1.57422C5.09327 1.35332 5.34717 1.27461 5.53506 1.4041Z" fill="white"/>
<path d="M7.43184 0.94216C7.10938 1.01833 6.85801 1.30271 6.81739 1.63786C6.77168 1.98825 7.01036 2.38435 7.32774 2.48845L7.41407 2.51892V2.92263C7.41407 3.31872 7.41661 3.32888 7.47754 3.38982C7.55372 3.46853 7.6629 3.47107 7.7543 3.39997L7.82032 3.34919V2.93786V2.52653L7.93965 2.47829C8.51348 2.24216 8.60235 1.42204 8.09454 1.07165C7.89649 0.937082 7.65782 0.88884 7.43184 0.94216ZM7.82032 1.40173C8.01329 1.53376 8.06661 1.71403 7.96758 1.90446C7.86094 2.11267 7.58926 2.19138 7.41661 2.06189C7.1754 1.88415 7.1754 1.54392 7.41915 1.39665C7.53594 1.32556 7.71114 1.3281 7.82032 1.40173Z" fill="white"/>
<path d="M4.67188 3.97242C4.32656 4.0689 4.0752 4.30758 3.96348 4.64273C3.9127 4.79508 3.91016 4.8484 3.91016 6.50133C3.91016 8.15426 3.9127 8.20758 3.96348 8.35992C4.08281 8.71285 4.35703 8.96168 4.72266 9.03785C4.82422 9.0607 5.32949 9.06578 6.60156 9.0607L8.34082 9.05308L8.48047 8.99468C8.78516 8.87027 8.99336 8.64429 9.08984 8.33199C9.13809 8.17965 9.14062 8.09332 9.14062 6.50133C9.14062 4.90933 9.13809 4.82301 9.08984 4.67066C8.99336 4.35836 8.78516 4.13238 8.48047 4.00797L8.34082 3.94957L6.56348 3.94449C5.19492 3.94195 4.76074 3.94703 4.67188 3.97242ZM8.2748 4.38375C8.36621 4.40914 8.44492 4.45738 8.53125 4.54117C8.73945 4.74429 8.73438 4.69859 8.73438 6.50133C8.73438 8.29898 8.73945 8.25074 8.53125 8.4564C8.32559 8.66461 8.37891 8.65953 6.52539 8.65953C4.72012 8.65953 4.73281 8.65953 4.54238 8.48941C4.48652 8.43863 4.41543 8.34976 4.38496 8.2939C4.3291 8.1898 4.3291 8.18726 4.3291 6.50133C4.3291 4.81793 4.3291 4.81285 4.38496 4.71129C4.46621 4.56148 4.60078 4.44468 4.75312 4.39136C4.87754 4.3482 5.00195 4.34566 6.51523 4.34312C7.91426 4.34312 8.16055 4.3482 8.2748 4.38375Z" fill="white"/>
<path d="M5.77882 5.33711C5.7128 5.40313 5.59601 5.63926 5.25577 6.40859C4.88761 7.24395 4.82159 7.41152 4.83683 7.48262C4.8546 7.58418 4.93331 7.64258 5.05519 7.64258C5.17198 7.64258 5.21515 7.59434 5.33194 7.32773L5.41573 7.13477H6.0048H6.59386L6.67765 7.33027C6.77921 7.57656 6.83761 7.64258 6.94933 7.64258C7.06612 7.64258 7.12198 7.60957 7.16007 7.51816C7.20069 7.41914 7.22101 7.47246 6.71319 6.33242C6.23585 5.26094 6.23331 5.25586 6.00226 5.25586C5.88038 5.25586 5.85499 5.26602 5.77882 5.33711ZM6.21808 6.26895C6.31964 6.50508 6.39581 6.71074 6.38819 6.72598C6.3628 6.76406 5.64679 6.76406 5.62394 6.72598C5.60108 6.69297 5.96925 5.83984 6.0048 5.83984C6.02003 5.83984 6.11651 6.03281 6.21808 6.26895Z" fill="white"/>
<path d="M7.61467 5.30352L7.55374 5.35176L7.54612 6.39023C7.54358 6.95898 7.54612 7.45156 7.55374 7.48457C7.60706 7.69785 7.93206 7.69785 7.98538 7.48457C7.99299 7.45156 7.99553 6.95898 7.99299 6.39023L7.98538 5.35176L7.92444 5.30352C7.88889 5.27559 7.82542 5.25527 7.76956 5.25527C7.7137 5.25527 7.65022 5.27559 7.61467 5.30352Z" fill="white"/>
<path d="M11.0017 4.56703C10.7783 4.64321 10.5828 4.8311 10.5066 5.04184L10.4761 5.12817H10.075C9.68142 5.12817 9.67126 5.13071 9.61033 5.19164C9.52654 5.27289 9.52654 5.38969 9.61033 5.47094C9.67126 5.53188 9.68142 5.53442 10.0724 5.53442H10.4736L10.5193 5.64867C10.5879 5.81117 10.7453 5.97875 10.9129 6.06C11.0373 6.12094 11.0855 6.1311 11.2734 6.12856C11.441 6.12856 11.5146 6.11586 11.6035 6.0727C11.7914 5.98129 11.9006 5.87465 11.9894 5.69438C12.0605 5.54711 12.0732 5.49887 12.0732 5.32875C12.0732 5.1561 12.0631 5.11547 11.9844 4.96059C11.7965 4.59496 11.3927 4.43246 11.0017 4.56703ZM11.4258 4.9809C11.7685 5.1561 11.7203 5.60551 11.347 5.71215C11.0881 5.78832 10.8088 5.49633 10.8875 5.23227C10.9357 5.07231 11.1058 4.93774 11.2734 4.92758C11.2963 4.92504 11.3648 4.95043 11.4258 4.9809Z" fill="white"/>
<path d="M1.42438 4.62461C1.2568 4.69062 1.07653 4.86582 0.990199 5.04102C0.901332 5.22637 0.903871 5.5209 0.992738 5.71387C1.13493 6.01094 1.39899 6.18105 1.72653 6.18359C1.89411 6.18359 1.94235 6.1709 2.08961 6.0998C2.2775 6.00586 2.41461 5.86621 2.47809 5.69609L2.52125 5.58691H2.92496C3.31852 5.58691 3.32868 5.58437 3.38961 5.52344C3.46832 5.44727 3.47086 5.33809 3.39977 5.24668L3.34899 5.18066H2.93766H2.52633L2.47809 5.06133C2.41207 4.90391 2.25465 4.73633 2.09469 4.65254C1.91442 4.56113 1.61735 4.54844 1.42438 4.62461ZM1.90426 5.0334C2.11246 5.14004 2.19118 5.41172 2.06168 5.58437C1.97789 5.69863 1.85602 5.76465 1.72907 5.76465C1.37106 5.76465 1.2111 5.33555 1.4777 5.08672C1.60465 4.96738 1.73922 4.94961 1.90426 5.0334Z" fill="white"/>
<path d="M11.05 6.84197C10.8037 6.91052 10.5828 7.11111 10.5117 7.32693L10.4812 7.41326H10.0775C9.6814 7.41326 9.67124 7.41579 9.61031 7.47673C9.5316 7.5529 9.52906 7.66208 9.60015 7.75349L9.65093 7.81951H10.0623H10.4736L10.5218 7.93884C10.7148 8.40857 11.3343 8.57869 11.7507 8.27654C11.9691 8.11912 12.1062 7.80681 12.0757 7.54275C12.0148 7.03747 11.5324 6.7074 11.05 6.84197ZM11.4714 7.2863C11.7812 7.47673 11.672 7.96931 11.3089 8.01247C11.0804 8.04294 10.8468 7.80935 10.8773 7.58083C10.9103 7.30662 11.2378 7.14412 11.4714 7.2863Z" fill="white"/>
<path d="M1.53613 6.87956C1.29492 6.94304 1.11973 7.08523 1.01055 7.30612C0.939453 7.45339 0.926758 7.50163 0.926758 7.67175C0.926758 7.8444 0.936914 7.88503 1.01562 8.03991C1.32539 8.64675 2.22168 8.61374 2.48066 7.98659L2.52637 7.87233H2.92754C3.31855 7.87233 3.32871 7.8698 3.38965 7.80886C3.47344 7.72761 3.47344 7.61081 3.38965 7.52956C3.32871 7.46862 3.31855 7.46608 2.92754 7.46608H2.52637L2.48066 7.35183C2.36641 7.07507 2.08965 6.8821 1.78242 6.86687C1.68848 6.86179 1.5793 6.86687 1.53613 6.87956ZM1.95 7.34675C2.03887 7.40769 2.13281 7.57273 2.13281 7.66921C2.13281 7.76823 2.03379 7.94343 1.94746 7.99675C1.81289 8.078 1.70371 8.08562 1.57422 8.0196C1.26445 7.86218 1.26445 7.47624 1.57422 7.31882C1.70625 7.25026 1.81797 7.26042 1.95 7.34675Z" fill="white"/>
<path d="M5.24566 9.60027L5.17964 9.65105V10.0624V10.4737L5.0603 10.5219C4.59058 10.7149 4.42046 11.3344 4.72261 11.7509C4.88003 11.9692 5.19234 12.1063 5.4564 12.0759C5.95659 12.0175 6.28159 11.5528 6.15972 11.0729C6.09116 10.8089 5.89819 10.5854 5.67222 10.5118L5.58589 10.4813V10.0776C5.58589 9.68152 5.58335 9.67136 5.52241 9.61043C5.44624 9.53172 5.33706 9.52918 5.24566 9.60027ZM5.58335 10.9384C5.90581 11.1745 5.7687 11.6544 5.38023 11.6544C5.18472 11.6544 5.00952 11.502 4.98667 11.3091C4.94605 10.9993 5.3396 10.7555 5.58335 10.9384Z" fill="white"/>
<path d="M7.52833 9.61133C7.46739 9.67227 7.46485 9.68242 7.46485 10.0734V10.4746L7.35059 10.5203C7.18809 10.5889 7.02052 10.7463 6.93927 10.9139C6.87833 11.0383 6.86817 11.0865 6.87071 11.2744C6.87071 11.442 6.88341 11.5156 6.92657 11.6045C7.01798 11.7924 7.12462 11.9016 7.30489 11.9904C7.45216 12.0615 7.5004 12.0742 7.67052 12.0742C7.84317 12.0742 7.8838 12.0641 8.03868 11.9854C8.64552 11.6756 8.61251 10.7793 7.98536 10.5203L7.8711 10.4746V10.0734C7.8711 9.68242 7.86856 9.67227 7.80762 9.61133C7.76954 9.5707 7.71622 9.54785 7.66798 9.54785C7.61973 9.54785 7.56641 9.5707 7.52833 9.61133ZM7.83555 10.9215C8.03868 11.018 8.11485 11.2338 8.01837 11.4268C7.86856 11.7213 7.49278 11.7365 7.32774 11.4547C7.21856 11.2643 7.29727 11.0205 7.50294 10.9189C7.63243 10.8555 7.70098 10.8555 7.83555 10.9215Z" fill="white"/>
</g>
<defs>
<clipPath id="clip0_100_184">
<rect width="13" height="13" fill="white"/>
</clipPath>
</defs>
</svg>
