<svg width="53" height="53" viewBox="0 0 53 53" fill="none" xmlns="http://www.w3.org/2000/svg">
<path d="M17.3077 3.51732C16.6969 3.88998 16.5623 4.25229 16.5623 5.50482V6.62279H14.9371C13.933 6.62279 13.0325 6.6849 12.6184 6.76771C11.0243 7.10931 9.48187 7.99955 8.31214 9.24174C6.97679 10.6703 6.29359 12.3162 6.11761 14.49C5.86918 17.6058 5.77601 22.1501 5.82777 28.4956C5.88988 35.897 6.06586 39.4994 6.41781 40.7829C7.20453 43.5779 9.53363 45.8759 12.3078 46.5902C14.0055 47.0249 20.2164 47.2423 28.6012 47.1699C35.8784 47.0974 39.3875 46.9318 40.7229 46.5902C43.4868 45.8656 45.8676 43.4744 46.5922 40.6898C46.9338 39.3751 47.0994 35.8245 47.1719 28.6199C47.2237 22.264 47.1409 17.7507 46.8821 14.5417C46.7061 12.3162 46.0332 10.691 44.6875 9.24174C43.5178 7.99955 41.9754 7.10931 40.3813 6.76771C39.9672 6.6849 39.0666 6.62279 38.0729 6.62279H36.4373V5.50482C36.4373 4.25229 36.3028 3.88998 35.692 3.51732C35.2262 3.23783 34.336 3.23783 33.8702 3.51732C33.2594 3.88998 33.1248 4.25229 33.1248 5.50482V6.62279H26.4998H19.8748V5.50482C19.8748 4.58353 19.8438 4.34544 19.6678 4.0556C19.3573 3.55873 18.8914 3.31029 18.2186 3.31029C17.8356 3.31029 17.5354 3.3724 17.3077 3.51732ZM16.5623 11.0429C16.5623 12.3058 16.6969 12.6681 17.3077 13.0408C17.7735 13.3203 18.6637 13.3203 19.1295 13.0408C19.7403 12.6681 19.8748 12.3058 19.8748 11.0429V9.93529H26.4998H33.1248V11.0429C33.1248 11.9745 33.1559 12.2126 33.3319 12.5025C33.6424 12.9994 34.1082 13.2478 34.7811 13.2478C35.4539 13.2478 35.9198 12.9994 36.2303 12.5025C36.4063 12.2126 36.4373 11.9745 36.4373 11.0326V9.90424L37.9176 9.96635C40.0811 10.0492 41.1991 10.4943 42.2239 11.6537C43.083 12.6371 43.4246 13.5997 43.5282 15.3906L43.5903 16.5603H26.4998H9.40941L9.47152 15.3906C9.57504 13.5997 9.91664 12.6371 10.7758 11.6537C11.0243 11.3742 11.459 11.0015 11.7489 10.8152C12.784 10.1527 13.5811 9.9767 15.5065 9.94564L16.5623 9.93529V11.0429ZM43.7352 20.5456C43.8491 21.5394 43.7248 34.2822 43.5903 36.7458C43.5178 37.9156 43.3936 39.1992 43.3108 39.6029C42.9381 41.404 41.4061 42.9361 39.6049 43.3087C36.5616 43.9505 16.4381 43.9505 13.3948 43.3087C11.5936 42.9361 10.0616 41.404 9.6889 39.6029C9.60609 39.1992 9.48187 37.9363 9.40941 36.7976C9.27484 34.396 9.15062 21.5497 9.26449 20.5456L9.33695 19.8728H26.4998H43.6627L43.7352 20.5456Z" fill="#1B1B1B"/>
<path d="M17.1318 25.0404C16.2313 25.4545 15.7344 26.2826 15.7344 27.3488C15.7447 28.8187 16.7385 29.8125 18.2188 29.8125C19.7094 29.8125 20.7031 28.8187 20.7031 27.3281C20.7031 26.2516 20.1545 25.3924 19.2332 25.0094C18.6949 24.7816 17.6494 24.8023 17.1318 25.0404Z" fill="#1B1B1B"/>
<path d="M25.4131 25.0404C24.5125 25.4545 24.0156 26.2826 24.0156 27.3488C24.026 28.8187 25.0197 29.8125 26.5 29.8125C27.9906 29.8125 28.9844 28.8187 28.9844 27.3281C28.9844 26.2516 28.4357 25.3924 27.5145 25.0094C26.9762 24.7816 25.9307 24.8023 25.4131 25.0404Z" fill="#1B1B1B"/>
<path d="M33.6943 25.0404C32.7938 25.4545 32.2969 26.2826 32.2969 27.3488C32.3072 28.8187 33.301 29.8125 34.7812 29.8125C36.2719 29.8125 37.2656 28.8187 37.2656 27.3281C37.2656 26.2516 36.717 25.3924 35.7957 25.0094C35.2574 24.7816 34.2119 24.8023 33.6943 25.0404Z" fill="#1B1B1B"/>
<path d="M17.1318 33.3217C16.2313 33.7357 15.7344 34.5639 15.7344 35.6301C15.7447 37.1 16.7385 38.0938 18.2188 38.0938C19.7094 38.0938 20.7031 37.1 20.7031 35.6094C20.7031 34.5328 20.1545 33.6736 19.2332 33.2906C18.6949 33.0629 17.6494 33.0836 17.1318 33.3217Z" fill="#1B1B1B"/>
<path d="M25.4131 33.3217C24.5125 33.7357 24.0156 34.5639 24.0156 35.6301C24.026 37.1 25.0197 38.0938 26.5 38.0938C27.9906 38.0938 28.9844 37.1 28.9844 35.6094C28.9844 34.5328 28.4357 33.6736 27.5145 33.2906C26.9762 33.0629 25.9307 33.0836 25.4131 33.3217Z" fill="#1B1B1B"/>
<path d="M33.6943 33.3217C32.7938 33.7357 32.2969 34.5639 32.2969 35.6301C32.3072 37.1 33.301 38.0938 34.7812 38.0938C36.2719 38.0938 37.2656 37.1 37.2656 35.6094C37.2656 34.5328 36.717 33.6736 35.7957 33.2906C35.2574 33.0629 34.2119 33.0836 33.6943 33.3217Z" fill="#1B1B1B"/>
</svg>
