<svg width="33" height="33" viewBox="0 0 33 33" fill="none" xmlns="http://www.w3.org/2000/svg">
<path d="M11.2752 2.95935C10.9069 3.18412 10.8257 3.40264 10.8257 4.15812V4.83243H9.84546C9.23984 4.83243 8.69664 4.86989 8.4469 4.91984C7.48539 5.12588 6.55509 5.66282 5.84956 6.41206C5.04414 7.27367 4.63206 8.26641 4.52592 9.57756C4.37607 11.4569 4.31988 14.1978 4.3511 18.0251C4.38856 22.4893 4.4947 24.6621 4.70699 25.4363C5.1815 27.1221 6.58631 28.5081 8.25959 28.939C9.28354 29.2012 13.0297 29.3323 18.087 29.2886C22.4763 29.2449 24.5928 29.145 25.3983 28.939C27.0653 28.5019 28.5013 27.0596 28.9384 25.3801C29.1444 24.5872 29.2443 22.4456 29.288 18.1001C29.3192 14.2665 29.2693 11.5443 29.1132 9.60878C29.0071 8.26641 28.6012 7.28616 27.7896 6.41206C27.084 5.66282 26.1537 5.12588 25.1922 4.91984C24.9425 4.86989 24.3993 4.83243 23.7999 4.83243H22.8134V4.15812C22.8134 3.40264 22.7322 3.18412 22.3639 2.95935C22.0829 2.79077 21.546 2.79077 21.265 2.95935C20.8966 3.18412 20.8155 3.40264 20.8155 4.15812V4.83243H16.8196H12.8237V4.15812C12.8237 3.60244 12.8049 3.45883 12.6988 3.28401C12.5115 2.98432 12.2305 2.83447 11.8247 2.83447C11.5937 2.83447 11.4126 2.87193 11.2752 2.95935ZM10.8257 7.49844C10.8257 8.26016 10.9069 8.47869 11.2752 8.70346C11.5562 8.87203 12.0932 8.87203 12.3741 8.70346C12.7425 8.47869 12.8237 8.26016 12.8237 7.49844V6.83038H16.8196H20.8155V7.49844C20.8155 8.06037 20.8342 8.20397 20.9403 8.37879C21.1276 8.67848 21.4086 8.82833 21.8144 8.82833C22.2203 8.82833 22.5012 8.67848 22.6885 8.37879C22.7947 8.20397 22.8134 8.06037 22.8134 7.4922V6.81165L23.7062 6.84911C25.0112 6.89906 25.6855 7.16753 26.3036 7.86681C26.8218 8.45996 27.0278 9.04061 27.0903 10.1208L27.1277 10.8263H16.8196H6.51138L6.54885 10.1208C6.61128 9.04061 6.81732 8.45996 7.33554 7.86681C7.48539 7.69824 7.74762 7.47347 7.92244 7.36108C8.5468 6.96149 9.02755 6.85535 10.1889 6.83662L10.8257 6.83038V7.49844ZM27.2152 13.2301C27.2838 13.8294 27.2089 21.5153 27.1277 23.0013C27.084 23.7068 27.0091 24.481 26.9592 24.7245C26.7344 25.8109 25.8103 26.735 24.724 26.9597C22.8883 27.3468 10.7508 27.3468 8.91517 26.9597C7.82878 26.735 6.90473 25.8109 6.67996 24.7245C6.63001 24.481 6.55509 23.7193 6.51138 23.0325C6.43022 21.584 6.35529 13.8357 6.42397 13.2301L6.46768 12.8242H16.8196H27.1714L27.2152 13.2301Z" fill="white"/>
<path d="M11.1693 15.9401C10.6261 16.1898 10.3264 16.6893 10.3264 17.3324C10.3327 18.219 10.932 18.8184 11.8249 18.8184C12.724 18.8184 13.3233 18.219 13.3233 17.3199C13.3233 16.6706 12.9924 16.1523 12.4368 15.9213C12.1121 15.784 11.4815 15.7965 11.1693 15.9401Z" fill="white"/>
<path d="M16.1642 15.9401C15.621 16.1898 15.3213 16.6893 15.3213 17.3324C15.3275 18.219 15.9269 18.8184 16.8198 18.8184C17.7188 18.8184 18.3182 18.219 18.3182 17.3199C18.3182 16.6706 17.9873 16.1523 17.4316 15.9213C17.107 15.784 16.4764 15.7965 16.1642 15.9401Z" fill="white"/>
<path d="M21.159 15.9401C20.6159 16.1898 20.3162 16.6893 20.3162 17.3324C20.3224 18.219 20.9218 18.8184 21.8146 18.8184C22.7137 18.8184 23.3131 18.219 23.3131 17.3199C23.3131 16.6706 22.9822 16.1523 22.4265 15.9213C22.1018 15.784 21.4712 15.7965 21.159 15.9401Z" fill="white"/>
<path d="M11.1693 20.9342C10.6261 21.1839 10.3264 21.6834 10.3264 22.3265C10.3327 23.2131 10.932 23.8125 11.8249 23.8125C12.724 23.8125 13.3233 23.2131 13.3233 22.314C13.3233 21.6647 12.9924 21.1465 12.4368 20.9155C12.1121 20.7781 11.4815 20.7906 11.1693 20.9342Z" fill="white"/>
<path d="M16.1642 20.9342C15.621 21.1839 15.3213 21.6834 15.3213 22.3265C15.3275 23.2131 15.9269 23.8125 16.8198 23.8125C17.7188 23.8125 18.3182 23.2131 18.3182 22.314C18.3182 21.6647 17.9873 21.1465 17.4316 20.9155C17.107 20.7781 16.4764 20.7906 16.1642 20.9342Z" fill="white"/>
<path d="M21.159 20.9342C20.6159 21.1839 20.3162 21.6834 20.3162 22.3265C20.3224 23.2131 20.9218 23.8125 21.8146 23.8125C22.7137 23.8125 23.3131 23.2131 23.3131 22.314C23.3131 21.6647 22.9822 21.1465 22.4265 20.9155C22.1018 20.7781 21.4712 20.7906 21.159 20.9342Z" fill="white"/>
</svg>
