<svg width="13" height="13" viewBox="0 0 13 13" fill="none" xmlns="http://www.w3.org/2000/svg">
<g clip-path="url(#clip0_100_229)">
<path d="M5.70755 0.469726C4.36947 0.652538 3.22689 1.20605 2.27474 2.13281C1.25658 3.12305 0.65228 4.32656 0.469468 5.72051C0.426304 6.06836 0.418687 6.81738 0.459312 7.18047C0.672593 9.15332 1.87357 10.923 3.64076 11.8701C4.51419 12.3348 5.46126 12.5684 6.49466 12.5684C7.23099 12.5684 7.77943 12.482 8.44212 12.2611C10.2271 11.6695 11.6667 10.2273 12.2634 8.4373C12.5046 7.71367 12.5833 7.14492 12.5605 6.29941C12.5452 5.71797 12.5072 5.45137 12.3777 4.95117C12.271 4.54746 12.2507 4.51953 12.0628 4.51953C11.9435 4.51953 11.8572 4.60332 11.8572 4.71504C11.8572 4.7582 11.8952 4.94609 11.9435 5.13144C12.1644 5.99727 12.1695 6.95703 11.9562 7.81777C11.847 8.25449 11.7556 8.51094 11.5525 8.9248C10.9786 10.1029 9.97064 11.0855 8.78998 11.6162C8.03587 11.9564 7.32494 12.1088 6.50736 12.1113C5.62884 12.1113 4.8722 11.9387 4.06986 11.5527C3.45794 11.2582 3.0263 10.951 2.53626 10.4635C2.04876 9.97598 1.74662 9.54941 1.44701 8.93242C1.06361 8.14023 0.888413 7.36836 0.888413 6.47715C0.888413 4.33926 2.13763 2.37402 4.10033 1.43203C4.87982 1.05625 5.6263 0.888671 6.5099 0.888671C7.30716 0.888671 8.04349 1.04355 8.7849 1.37109C8.91185 1.42695 9.04388 1.47266 9.07943 1.47266C9.17591 1.47266 9.29271 1.34316 9.29271 1.23906C9.29271 1.19336 9.27494 1.12988 9.25462 1.10195C9.21146 1.03594 8.7265 0.825194 8.34056 0.70332C7.72357 0.507812 7.19544 0.43164 6.46673 0.434179C6.1849 0.436718 5.84212 0.451953 5.70755 0.469726Z" fill="#16A34A"/>
<path d="M9.6207 3.23992C8.17852 4.78367 6.97246 6.05828 6.93945 6.07098C6.90645 6.08367 6.85566 6.08367 6.8252 6.07098C6.79219 6.05828 6.09394 5.67488 5.26875 5.21785C3.62598 4.30379 3.63613 4.30887 3.51172 4.45613C3.46094 4.51453 3.45078 4.54754 3.46094 4.62117C3.47871 4.76082 6.94199 9.44031 7.07148 9.50379C7.2873 9.60535 7.48027 9.52664 7.63262 9.27527C7.69102 9.18133 8.82598 7.22117 10.1539 4.92078C12.1318 1.49305 12.5686 0.721172 12.5686 0.647539C12.5686 0.520586 12.4771 0.431719 12.3426 0.431719H12.2436L9.6207 3.23992Z" fill="#16A34A"/>
</g>
<defs>
<clipPath id="clip0_100_229">
<rect width="13" height="13" fill="white"/>
</clipPath>
</defs>
</svg>
