<svg width="24" height="24" viewBox="0 0 24 24" fill="none" xmlns="http://www.w3.org/2000/svg">
<g clip-path="url(#clip0_58_171)">
<path d="M10.5377 0.867188C8.06735 1.20469 5.95797 2.22656 4.20016 3.9375C2.32047 5.76562 1.20485 7.9875 0.867348 10.5609C0.787661 11.2031 0.773598 12.5859 0.848598 13.2562C1.24235 16.8984 3.45954 20.1656 6.72203 21.9141C8.33453 22.7719 10.083 23.2031 11.9908 23.2031C13.3502 23.2031 14.3627 23.0437 15.5861 22.6359C18.8814 21.5437 21.5392 18.8812 22.6408 15.5766C23.0861 14.2406 23.2314 13.1906 23.1892 11.6297C23.1611 10.5562 23.0908 10.0641 22.8517 9.14062C22.6548 8.39531 22.6173 8.34375 22.2705 8.34375C22.0502 8.34375 21.8908 8.49844 21.8908 8.70469C21.8908 8.78437 21.9611 9.13125 22.0502 9.47344C22.458 11.0719 22.4673 12.8438 22.0736 14.4328C21.872 15.2391 21.7033 15.7125 21.3283 16.4766C20.2689 18.6516 18.408 20.4656 16.2283 21.4453C14.8361 22.0734 13.5236 22.3547 12.0142 22.3594C10.3923 22.3594 8.99547 22.0406 7.51422 21.3281C6.38453 20.7844 5.58766 20.2172 4.68297 19.3172C3.78297 18.4172 3.22516 17.6297 2.67204 16.4906C1.96422 15.0281 1.64079 13.6031 1.64079 11.9578C1.64079 8.01094 3.94704 4.38281 7.57047 2.64375C9.00953 1.95 10.3877 1.64062 12.0189 1.64062C13.4908 1.64062 14.8502 1.92656 16.2189 2.53125C16.4533 2.63437 16.697 2.71875 16.7627 2.71875C16.9408 2.71875 17.1564 2.47969 17.1564 2.2875C17.1564 2.20312 17.1236 2.08594 17.0861 2.03437C17.0064 1.9125 16.1111 1.52344 15.3986 1.29844C14.2595 0.9375 13.2845 0.796875 11.9392 0.801561C11.4189 0.80625 10.7861 0.834373 10.5377 0.867188Z" fill="white"/>
<path d="M17.761 5.98139C15.0985 8.8314 12.8719 11.1845 12.811 11.208C12.75 11.2314 12.6563 11.2314 12.6 11.208C12.5391 11.1845 11.25 10.4767 9.7266 9.63296C6.69379 7.94546 6.71254 7.95483 6.48285 8.22671C6.3891 8.33452 6.37035 8.39546 6.3891 8.53139C6.42191 8.78921 12.8157 17.4283 13.0547 17.5455C13.4532 17.733 13.8094 17.5876 14.0907 17.1236C14.1985 16.9501 16.2938 13.3314 18.7454 9.08452C22.3969 2.75639 23.2032 1.33139 23.2032 1.19546C23.2032 0.961082 23.0344 0.79702 22.786 0.79702H22.6032L17.761 5.98139Z" fill="white"/>
</g>
<defs>
<clipPath id="clip0_58_171">
<rect width="24" height="24" fill="white"/>
</clipPath>
</defs>
</svg>
