<svg width="57" height="57" viewBox="0 0 57 57" fill="none" xmlns="http://www.w3.org/2000/svg">
<path d="M28.5 21.375V35.625M35.625 28.5H21.375M49.875 28.5C49.875 31.307 49.3221 34.0865 48.2479 36.6799C47.1737 39.2732 45.5993 41.6296 43.6144 43.6144C41.6296 45.5993 39.2732 47.1737 36.6799 48.2479C34.0865 49.3221 31.307 49.875 28.5 49.875C25.693 49.875 22.9135 49.3221 20.3201 48.2479C17.7268 47.1737 15.3704 45.5993 13.3856 43.6144C11.4007 41.6296 9.82627 39.2732 8.75207 36.6799C7.67788 34.0865 7.125 31.307 7.125 28.5C7.125 22.831 9.377 17.3942 13.3856 13.3856C17.3942 9.377 22.831 7.125 28.5 7.125C34.169 7.125 39.6058 9.377 43.6144 13.3856C47.623 17.3942 49.875 22.831 49.875 28.5Z" stroke="black" stroke-width="2.68868" stroke-linecap="round" stroke-linejoin="round"/>
</svg>
