<svg width="125" height="121" viewBox="0 0 125 121" fill="none" xmlns="http://www.w3.org/2000/svg">
<circle cx="67.7735" cy="3.22612" r="3.08061" fill="#D2D1D1"/>
<circle cx="67.7735" cy="15.5489" r="3.08061" fill="#D2D1D1"/>
<circle cx="67.7735" cy="29.4112" r="3.08061" fill="#D2D1D1"/>
<circle cx="67.7735" cy="41.7339" r="3.08061" fill="#D2D1D1"/>
<circle cx="67.7735" cy="54.0562" r="3.08061" fill="#D2D1D1"/>
<circle cx="3.08061" cy="3.22612" r="3.08061" fill="#D2D1D1"/>
<circle cx="3.08061" cy="15.5489" r="3.08061" fill="#D2D1D1"/>
<circle cx="3.08061" cy="29.4112" r="3.08061" fill="#D2D1D1"/>
<circle cx="3.08061" cy="41.7339" r="3.08061" fill="#D2D1D1"/>
<circle cx="3.08061" cy="54.0562" r="3.08061" fill="#D2D1D1"/>
<circle cx="81.6363" cy="3.22612" r="3.08061" fill="#D2D1D1"/>
<circle cx="81.6363" cy="15.5489" r="3.08061" fill="#D2D1D1"/>
<circle cx="81.6363" cy="29.4112" r="3.08061" fill="#D2D1D1"/>
<circle cx="81.6363" cy="41.7339" r="3.08061" fill="#D2D1D1"/>
<circle cx="81.6363" cy="54.0562" r="3.08061" fill="#D2D1D1"/>
<circle cx="16.9434" cy="3.22612" r="3.08061" fill="#D2D1D1"/>
<circle cx="16.9434" cy="15.5489" r="3.08061" fill="#D2D1D1"/>
<circle cx="16.9434" cy="29.4112" r="3.08061" fill="#D2D1D1"/>
<circle cx="16.9434" cy="41.7339" r="3.08061" fill="#D2D1D1"/>
<circle cx="16.9434" cy="54.0562" r="3.08061" fill="#D2D1D1"/>
<circle cx="95.4991" cy="3.22612" r="3.08061" fill="#D2D1D1"/>
<circle cx="95.4991" cy="15.5489" r="3.08061" fill="#D2D1D1"/>
<circle cx="95.4991" cy="29.4112" r="3.08061" fill="#D2D1D1"/>
<circle cx="95.4991" cy="41.7339" r="3.08061" fill="#D2D1D1"/>
<circle cx="95.4991" cy="54.0562" r="3.08061" fill="#D2D1D1"/>
<circle cx="30.8062" cy="3.22612" r="3.08061" fill="#D2D1D1"/>
<circle cx="30.8062" cy="15.5489" r="3.08061" fill="#D2D1D1"/>
<circle cx="30.8062" cy="29.4112" r="3.08061" fill="#D2D1D1"/>
<circle cx="30.8062" cy="41.7339" r="3.08061" fill="#D2D1D1"/>
<circle cx="30.8062" cy="54.0562" r="3.08061" fill="#D2D1D1"/>
<circle cx="107.821" cy="3.22612" r="3.08061" fill="#D2D1D1"/>
<circle cx="107.821" cy="15.5489" r="3.08061" fill="#D2D1D1"/>
<circle cx="107.821" cy="29.4112" r="3.08061" fill="#D2D1D1"/>
<circle cx="107.821" cy="41.7339" r="3.08061" fill="#D2D1D1"/>
<circle cx="107.821" cy="54.0562" r="3.08061" fill="#D2D1D1"/>
<circle cx="43.1285" cy="3.22612" r="3.08061" fill="#D2D1D1"/>
<circle cx="43.1285" cy="15.5489" r="3.08061" fill="#D2D1D1"/>
<circle cx="43.1285" cy="29.4112" r="3.08061" fill="#D2D1D1"/>
<circle cx="43.1285" cy="41.7339" r="3.08061" fill="#D2D1D1"/>
<circle cx="43.1285" cy="54.0562" r="3.08061" fill="#D2D1D1"/>
<circle cx="121.684" cy="3.22612" r="3.08061" fill="#D2D1D1"/>
<circle cx="121.684" cy="15.5489" r="3.08061" fill="#D2D1D1"/>
<circle cx="121.684" cy="29.4112" r="3.08061" fill="#D2D1D1"/>
<circle cx="121.684" cy="41.7339" r="3.08061" fill="#D2D1D1"/>
<circle cx="121.684" cy="54.0562" r="3.08061" fill="#D2D1D1"/>
<circle cx="56.9913" cy="3.22612" r="3.08061" fill="#D2D1D1"/>
<circle cx="56.9913" cy="15.5489" r="3.08061" fill="#D2D1D1"/>
<circle cx="56.9913" cy="29.4112" r="3.08061" fill="#D2D1D1"/>
<circle cx="56.9913" cy="41.7339" r="3.08061" fill="#D2D1D1"/>
<circle cx="56.9913" cy="54.0562" r="3.08061" fill="#D2D1D1"/>
<circle cx="67.7735" cy="66.3785" r="3.08061" fill="#D2D1D1"/>
<circle cx="67.7735" cy="78.7012" r="3.08061" fill="#D2D1D1"/>
<circle cx="67.7735" cy="92.5635" r="3.08061" fill="#D2D1D1"/>
<circle cx="67.7735" cy="104.886" r="3.08061" fill="#D2D1D1"/>
<circle cx="67.7735" cy="117.209" r="3.08061" fill="#D2D1D1"/>
<circle cx="3.08061" cy="66.3785" r="3.08061" fill="#D2D1D1"/>
<circle cx="3.08061" cy="78.7012" r="3.08061" fill="#D2D1D1"/>
<circle cx="3.08061" cy="92.5635" r="3.08061" fill="#D2D1D1"/>
<circle cx="3.08061" cy="104.886" r="3.08061" fill="#D2D1D1"/>
<circle cx="3.08061" cy="117.209" r="3.08061" fill="#D2D1D1"/>
<circle cx="81.6363" cy="66.3785" r="3.08061" fill="#D2D1D1"/>
<circle cx="81.6363" cy="78.7012" r="3.08061" fill="#D2D1D1"/>
<circle cx="81.6363" cy="92.5635" r="3.08061" fill="#D2D1D1"/>
<circle cx="81.6363" cy="104.886" r="3.08061" fill="#D2D1D1"/>
<circle cx="81.6363" cy="117.209" r="3.08061" fill="#D2D1D1"/>
<circle cx="16.9434" cy="66.3785" r="3.08061" fill="#D2D1D1"/>
<circle cx="16.9434" cy="78.7012" r="3.08061" fill="#D2D1D1"/>
<circle cx="16.9434" cy="92.5635" r="3.08061" fill="#D2D1D1"/>
<circle cx="16.9434" cy="104.886" r="3.08061" fill="#D2D1D1"/>
<circle cx="16.9434" cy="117.209" r="3.08061" fill="#D2D1D1"/>
<circle cx="95.4991" cy="66.3785" r="3.08061" fill="#D2D1D1"/>
<circle cx="95.4991" cy="78.7012" r="3.08061" fill="#D2D1D1"/>
<circle cx="95.4991" cy="92.5635" r="3.08061" fill="#D2D1D1"/>
<circle cx="95.4991" cy="104.886" r="3.08061" fill="#D2D1D1"/>
<circle cx="95.4991" cy="117.209" r="3.08061" fill="#D2D1D1"/>
<circle cx="30.8062" cy="66.3785" r="3.08061" fill="#D2D1D1"/>
<circle cx="30.8062" cy="78.7012" r="3.08061" fill="#D2D1D1"/>
<circle cx="107.821" cy="66.3785" r="3.08061" fill="#D2D1D1"/>
<circle cx="107.821" cy="78.7012" r="3.08061" fill="#D2D1D1"/>
<circle cx="107.821" cy="92.5635" r="3.08061" fill="#D2D1D1"/>
<circle cx="107.821" cy="104.886" r="3.08061" fill="#D2D1D1"/>
<circle cx="107.821" cy="117.209" r="3.08061" fill="#D2D1D1"/>
<circle cx="43.1285" cy="66.3785" r="3.08061" fill="#D2D1D1"/>
<circle cx="43.1285" cy="78.7012" r="3.08061" fill="#D2D1D1"/>
<circle cx="43.1285" cy="117.209" r="3.08061" fill="#D2D1D1"/>
<circle cx="121.684" cy="66.3785" r="3.08061" fill="#D2D1D1"/>
<circle cx="121.684" cy="78.7012" r="3.08061" fill="#D2D1D1"/>
<circle cx="121.684" cy="92.5635" r="3.08061" fill="#D2D1D1"/>
<circle cx="121.684" cy="104.886" r="3.08061" fill="#D2D1D1"/>
<circle cx="121.684" cy="117.209" r="3.08061" fill="#D2D1D1"/>
<circle cx="56.9913" cy="66.3785" r="3.08061" fill="#D2D1D1"/>
<circle cx="56.9913" cy="78.7012" r="3.08061" fill="#D2D1D1"/>
<circle cx="56.9913" cy="92.5635" r="3.08061" fill="#D2D1D1"/>
<circle cx="56.9913" cy="104.886" r="3.08061" fill="#D2D1D1"/>
<circle cx="56.9913" cy="117.209" r="3.08061" fill="#D2D1D1"/>
</svg>
