<svg width="32" height="32" viewBox="0 0 32 32" fill="none" xmlns="http://www.w3.org/2000/svg">
<path d="M28.5626 16.4097C28.5626 15.5558 28.4919 14.6972 28.3412 13.8571H16.2532V18.6945H23.1754C22.8882 20.2547 21.9652 21.6348 20.6137 22.5119V25.6507H24.7435C27.1687 23.4627 28.5626 20.2316 28.5626 16.4097Z" fill="#4285F4"/>
<path d="M16.2534 28.6833C19.7098 28.6833 22.6247 27.5709 24.7485 25.6507L20.6186 22.5119C19.4696 23.2781 17.9863 23.712 16.2581 23.712C12.9147 23.712 10.0798 21.501 9.06269 18.5284H4.80103V21.7641C6.97659 26.0061 11.4078 28.6833 16.2534 28.6833Z" fill="#262626"/>
<path d="M9.05772 18.5284C8.52089 16.9683 8.52089 15.2789 9.05772 13.7187V10.483H4.80076C2.98308 14.0326 2.98308 18.2145 4.80076 21.7641L9.05772 18.5284Z" fill="#FBBC04"/>
<path d="M16.2534 8.53042C18.0805 8.50272 19.8464 9.17664 21.1696 10.4137L24.8285 6.82717C22.5117 4.69464 19.4367 3.52221 16.2534 3.55914C11.4078 3.55914 6.97659 6.23634 4.80103 10.4829L9.05798 13.7187C10.0704 10.7414 12.91 8.53042 16.2534 8.53042Z" fill="#EA4335"/>
</svg>
