<svg width="24" height="24" viewBox="0 0 24 24" fill="none" xmlns="http://www.w3.org/2000/svg">
<g clip-path="url(#clip0_65_57)">
<path d="M8.49836 1.03613C5.88274 1.34081 3.53899 2.86894 2.15617 5.1705C0.923361 7.22831 0.646799 9.82988 1.41086 12.2018C1.60774 12.8205 2.17024 13.9268 2.54524 14.4518C3.39367 15.6283 4.45774 16.5189 5.77492 17.1564C6.46867 17.4939 6.67492 17.5221 6.89524 17.3018C7.00774 17.1846 7.03117 17.1236 7.03117 16.9361C7.03117 16.7955 6.99836 16.6736 6.9468 16.608C6.90461 16.5564 6.63742 16.4018 6.36086 16.2752C4.52336 15.4127 3.11242 13.8658 2.46086 11.9955C1.79055 10.0689 1.89836 8.11425 2.77024 6.28144C3.14992 5.48925 3.55305 4.92675 4.24211 4.24238C5.5593 2.9205 7.02649 2.23613 8.92024 2.05331C10.4952 1.908 12.2296 2.358 13.603 3.26738C15.2859 4.38769 16.4015 6.04706 16.8327 8.06269C16.9734 8.72363 16.9874 10.158 16.8609 10.8049C16.7202 11.5174 16.5093 12.1361 16.1718 12.8205C15.6655 13.8471 14.953 14.7236 14.0624 15.408C13.5234 15.8252 13.4999 15.858 13.4999 16.1346C13.4999 16.3268 13.5234 16.3877 13.6359 16.5049C13.7484 16.6127 13.814 16.6408 13.9827 16.6408C14.1702 16.6408 14.2452 16.6033 14.5874 16.3502C15.9515 15.3471 17.0249 13.8518 17.5734 12.2064C17.8874 11.2643 17.9577 10.8424 17.9859 9.72675C18.014 8.583 17.9343 7.96894 17.6484 7.00331C17.4609 6.37988 16.964 5.32519 16.603 4.78613C15.1827 2.68144 12.989 1.34081 10.453 1.03144C9.99367 0.975187 8.99055 0.979876 8.49836 1.03613Z" fill="white"/>
<path d="M9.22493 4.05938C9.15462 4.09688 9.07493 4.16719 9.04681 4.21875C9.01868 4.27031 8.99993 4.66406 8.99993 5.14688V5.98594L8.71399 6.01406C8.13743 6.06563 7.48587 6.51094 7.21868 7.03125C6.93274 7.59375 6.90931 8.29219 7.16243 8.83594C7.43899 9.42656 8.00149 9.86719 8.62024 9.98438C8.75618 10.0078 9.16868 10.0313 9.53431 10.0313C10.289 10.0313 10.4671 10.0828 10.7202 10.3734C11.1421 10.8516 11.0015 11.5641 10.4296 11.8547C10.1999 11.9766 10.1952 11.9766 8.78899 11.9906C8.01556 11.9953 7.33587 12.0141 7.27493 12.0234C7.03587 12.0797 6.89993 12.5625 7.05931 12.7875C7.20931 13.0031 7.34524 13.0313 8.20306 13.0313H8.99993V13.8797V14.7281L9.13587 14.8641C9.25306 14.9766 9.31399 15 9.50149 15C9.69837 15 9.75462 14.9766 9.87181 14.8547L10.0077 14.7141L10.0218 13.8797L10.0359 13.0453L10.3218 12.9938C10.9921 12.8672 11.5265 12.4688 11.8218 11.8734C11.9718 11.5688 11.9765 11.5359 11.9765 10.9922C11.9765 10.4484 11.9718 10.4203 11.8171 10.1156C11.6249 9.72656 11.2406 9.35156 10.8515 9.16406C10.5796 9.03281 10.5374 9.02813 9.67962 9C8.67649 8.96719 8.55931 8.93438 8.27806 8.625C8.12337 8.45625 8.01556 8.19375 8.01556 7.99688C8.01556 7.82344 8.12337 7.55156 8.25931 7.38281C8.53118 7.05469 8.52649 7.05938 10.2046 7.03125L11.714 7.00781L11.8546 6.87188C11.9765 6.75469 11.9999 6.69844 11.9999 6.50156C11.9999 6.31406 11.9765 6.25313 11.864 6.13594L11.7281 6H10.8796H10.0312V5.20313C10.0312 4.34531 10.0031 4.20938 9.78743 4.05938C9.65618 3.96563 9.39368 3.96563 9.22493 4.05938Z" fill="white"/>
<path d="M19.2047 12.0516C19.0031 12.1687 18.9188 12.5859 19.0594 12.7875C19.2188 13.0219 19.3031 13.0312 20.7984 13.0312H22.1953L18.8438 16.3828L15.4922 19.7344L13.6406 17.8875C12.4078 16.6547 11.7469 16.0266 11.6578 16.0078C11.5875 15.9891 11.4703 15.9844 11.4 15.9937C11.2641 16.0172 0.342188 22.9453 0.13125 23.1469C0.0234375 23.2453 0 23.3062 0 23.4984C0 23.6859 0.0234375 23.7469 0.135938 23.8641C0.248438 23.9766 0.314063 24 0.4875 24C0.69375 24 0.970313 23.8312 5.93906 20.6625C8.82188 18.8297 11.2359 17.2969 11.3063 17.2547L11.4375 17.1797L13.35 19.0875L15.2625 21H15.4922H15.7266L19.3453 17.3812L22.9688 13.7578V15.1781C22.9688 16.7016 22.9781 16.7766 23.2125 16.9406C23.4188 17.0859 23.8406 16.9922 23.9531 16.7859C23.9813 16.725 24 15.9094 24 14.4844V12.2719L23.8641 12.1359L23.7281 12H21.5063C20.0859 12 19.2609 12.0187 19.2047 12.0516Z" fill="white"/>
</g>
<defs>
<clipPath id="clip0_65_57">
<rect width="24" height="24" fill="white"/>
</clipPath>
</defs>
</svg>
