<svg width="27" height="27" viewBox="0 0 27 27" fill="none" xmlns="http://www.w3.org/2000/svg">
<g clip-path="url(#clip0_14_375)">
<path d="M0 1.93388C0 0.865687 0.887625 0 1.98281 0H25.0172C26.1124 0 27 0.865687 27 1.93388V25.0661C27 26.1343 26.1124 27 25.0172 27H1.98281C0.887625 27 0 26.1343 0 25.0661V1.93388ZM6.31547 22.6024C7.43431 22.6024 8.34131 21.6954 8.34131 20.5765V12.436C8.34131 11.3172 7.43431 10.4102 6.31547 10.4102C5.19663 10.4102 4.28963 11.3172 4.28963 12.436V20.5765C4.28963 21.6954 5.19663 22.6024 6.31547 22.6024ZM6.31631 8.74463C7.72875 8.74463 8.60794 7.80975 8.60794 6.63863C8.58262 5.44219 7.73044 4.53263 6.34331 4.53263C4.95619 4.53263 4.05 5.44387 4.05 6.63863C4.05 7.80975 4.92919 8.74463 6.28931 8.74463H6.31631ZM12.5782 22.6024C13.694 22.6024 14.5986 21.6978 14.5986 20.582V15.7933C14.5986 15.4288 14.6256 15.0643 14.7336 14.8044C15.0255 14.0771 15.6921 13.3228 16.8126 13.3228C18.279 13.3228 18.8646 14.4399 18.8646 16.0802V20.5765C18.8646 21.6954 19.7716 22.6024 20.8904 22.6024C22.0092 22.6024 22.9163 21.6954 22.9163 20.5765V15.6094C22.9163 11.8631 20.9182 10.1216 18.252 10.1216C16.1021 10.1216 15.1386 11.3029 14.5986 12.1348V12.1674C14.5986 12.1727 14.5943 12.177 14.589 12.177C14.5815 12.177 14.5769 12.1687 14.581 12.1623L14.5986 12.1348C14.5986 11.1823 13.8264 10.4102 12.8739 10.4102H12.6183C11.4903 10.4102 10.5661 11.3489 10.5692 12.4769C10.5754 14.7634 10.5649 18.3425 10.5567 20.5761C10.5526 21.6956 11.4588 22.6024 12.5782 22.6024Z" fill="#E9F0F3"/>
</g>
<defs>
<clipPath id="clip0_14_375">
<rect width="27" height="27" rx="4" fill="white"/>
</clipPath>
</defs>
</svg>
