<svg width="53" height="53" viewBox="0 0 53 53" fill="none" xmlns="http://www.w3.org/2000/svg">
<path d="M13.457 3.1272C13.0637 3.28247 12.691 3.54126 12.2562 3.97602C11.5109 4.73169 11.1797 5.46665 11.1797 6.41899V7.04008H8.48828C5.23789 7.04008 4.9998 7.09185 3.975 8.11665C3.51953 8.57212 3.28145 8.91372 3.12617 9.34849L2.89844 9.94888V24.0166V38.0844L3.12617 38.6848C3.42637 39.5129 4.37871 40.4653 5.20684 40.7655C5.76582 40.9829 5.99355 40.9932 8.48828 40.9932H11.1797V41.6143C11.1797 42.5666 11.5109 43.3016 12.2562 44.0573C12.7117 44.5127 13.0533 44.7508 13.4881 44.9061C14.0781 45.1338 14.2023 45.1338 19.7301 45.1338H25.382L25.734 44.7819C26.0445 44.4713 26.0859 44.3678 26.0859 43.902C26.0859 43.4672 26.0342 43.3223 25.7857 43.0428L25.4855 42.7012L20.0613 42.6495C14.0988 42.5977 14.3369 42.6184 13.9021 41.9559C13.7262 41.6868 13.7158 40.7137 13.7158 24.0166C13.7158 7.31958 13.7262 6.34653 13.9021 6.07739C13.9953 5.92212 14.2023 5.71508 14.3576 5.62192C14.6164 5.44595 15.2271 5.43559 24.0156 5.43559C32.8041 5.43559 33.4148 5.44595 33.6736 5.62192C33.8289 5.71508 34.0359 5.92212 34.1291 6.07739C34.3051 6.33618 34.3154 7.06079 34.3465 17.4952L34.3672 28.6334L33.9014 28.8612C31.9139 29.8239 29.8953 31.8424 28.8498 33.9231C28.4771 34.6477 28.0631 35.8899 27.8871 36.8319C27.7215 37.7221 27.6904 39.9581 27.8457 40.8483C28.6635 45.5272 32.3797 49.202 37.0896 50.0094C38.2594 50.2061 40.7437 50.0715 41.8721 49.761C43.8182 49.2124 45.4848 48.229 46.8926 46.8004C48.5695 45.1028 49.6047 43.0946 50.0084 40.7551C50.1947 39.6579 50.0809 37.101 49.8014 36.0762C49.1492 33.685 47.6172 31.3973 45.7643 30.0206L45.1432 29.5547L45.1328 19.7518C45.1328 9.95923 45.1328 9.94888 44.9051 9.34849C44.6049 8.52036 43.6525 7.56802 42.8244 7.26782C42.2654 7.05044 42.0377 7.04008 39.543 7.04008H36.8516V6.41899C36.8516 5.46665 36.5203 4.73169 35.775 3.97602C35.3195 3.52055 34.9779 3.28247 34.5432 3.1272L33.9428 2.89946L23.9846 2.90981C14.1092 2.90981 14.0264 2.90981 13.457 3.1272ZM11.1797 24.027V38.5192L8.76777 38.4881C6.13848 38.4571 6.02461 38.426 5.6209 37.8153C5.44492 37.5565 5.43457 36.7387 5.40352 24.379C5.38281 17.1536 5.40352 11.0358 5.43457 10.7977C5.50703 10.2594 5.90039 9.76255 6.34551 9.63833C6.53184 9.58657 7.69121 9.53481 8.9334 9.53481L11.1797 9.52446V24.027ZM41.9549 9.76255C42.1102 9.85571 42.3172 10.0627 42.4104 10.218C42.5863 10.4768 42.5967 11.0979 42.6277 19.3792C42.6381 24.2651 42.6277 28.2608 42.5967 28.2608C42.5656 28.2608 42.1516 28.1573 41.6857 28.0331C40.9404 27.826 40.5885 27.795 38.8391 27.795H36.8516V18.6545V9.51411L39.2635 9.54517C41.3545 9.57622 41.7064 9.59692 41.9549 9.76255ZM44.8844 34.8237C45.3502 35.2895 45.3709 35.8174 44.9361 36.3971C44.5842 36.8733 38.4664 42.96 38.0938 43.2084C37.7004 43.4672 37.1518 43.4155 36.6859 43.0739C36.2201 42.7219 33.0215 39.5129 32.773 39.1299C32.6799 38.9954 32.6074 38.6952 32.6074 38.4778C32.6074 37.9084 33.1457 37.3702 33.715 37.3702C33.9324 37.3702 34.2326 37.4426 34.3672 37.5358C34.5121 37.629 35.2678 38.3432 36.0545 39.1196L37.4727 40.5274L40.3504 37.6704C41.9238 36.0969 43.3316 34.7305 43.4766 34.6374C43.6111 34.5442 43.9113 34.4717 44.1287 34.4717C44.4496 34.4717 44.6049 34.5442 44.8844 34.8237Z" fill="#1C1C1C"/>
<path d="M17.3285 9.04727L16.9766 9.39922V14.0781V18.757L17.3285 19.109L17.6805 19.4609H24.0156H30.3508L30.7027 19.109L31.0547 18.757V14.0781V9.39922L30.7027 9.04727C30.3922 8.73672 30.2887 8.69531 29.8332 8.69531C29.3363 8.69531 29.2432 8.74707 28.0838 9.60625C27.4109 10.1031 26.8002 10.5586 26.7277 10.6C26.6242 10.6621 26.2723 10.3826 25.5787 9.68906L24.5643 8.69531H24.0156H23.467L22.4525 9.68906C21.759 10.3826 21.407 10.6621 21.3035 10.6C21.2311 10.5586 20.6203 10.1031 19.9475 9.60625C18.7881 8.74707 18.6949 8.69531 18.198 8.69531C17.7426 8.69531 17.6391 8.73672 17.3285 9.04727ZM25.0094 12.7324C25.9514 13.6537 25.9617 13.6641 26.4793 13.6641C26.9865 13.6641 27.3385 13.4674 28.4461 12.5979C28.5393 12.5254 28.5703 12.9602 28.5703 14.7406V16.9766H24.0156H19.4609V14.7406C19.4609 12.9602 19.492 12.5254 19.5955 12.5979C20.6928 13.4777 21.0447 13.6641 21.5623 13.6641C22.0799 13.6641 22.0902 13.6537 23.0219 12.7324C23.5395 12.2252 23.9846 11.8008 24.0053 11.8008C24.0363 11.8008 24.4814 12.2148 25.0094 12.7324Z" fill="#1C1C1C"/>
<path d="M23.1255 25.6106C22.8046 25.9315 22.7735 26.0144 22.7735 26.5733C22.7735 27.1737 22.7632 27.1944 22.4112 27.3601C21.8419 27.6292 21.1069 28.3642 20.8481 28.9335C20.4858 29.6995 20.4962 30.9106 20.8688 31.656C21.3243 32.5669 22.2249 33.188 23.6224 33.5399C24.4919 33.7677 24.8438 33.9851 24.8438 34.2956C24.8438 34.5854 24.7507 34.72 24.4608 34.8753C24.0364 35.0927 23.788 35.0099 23.2911 34.4716C22.8356 33.9851 22.7839 33.954 22.287 33.954C21.6452 33.954 21.1794 34.2853 21.0241 34.8442C20.8067 35.631 21.4485 36.6972 22.463 37.2147C22.7528 37.37 22.7735 37.4114 22.7735 38.0015C22.7735 38.5812 22.8046 38.664 23.1255 38.9849C23.6431 39.5024 24.3884 39.5024 24.906 38.9849C25.2269 38.664 25.2579 38.5812 25.2579 38.0222C25.2579 37.4218 25.2683 37.4011 25.6202 37.2354C26.1792 36.9663 26.8728 36.2728 27.173 35.6827C27.5456 34.9271 27.5456 33.7056 27.1626 32.9396C26.7071 32.0286 25.8065 31.4075 24.4091 31.0556C23.5396 30.8278 23.1876 30.6104 23.1876 30.2999C23.1876 30.0101 23.2808 29.8755 23.5706 29.7202C23.995 29.5028 24.2435 29.5856 24.7403 30.1239C25.1958 30.6104 25.2476 30.6415 25.7444 30.6415C26.3862 30.6415 26.8521 30.3103 27.0073 29.7513C27.2247 28.9646 26.5829 27.8983 25.5685 27.3808C25.2786 27.2255 25.2579 27.1841 25.2579 26.594C25.2579 26.0144 25.2269 25.9315 24.906 25.6106C24.5954 25.3001 24.4919 25.2587 24.0157 25.2587C23.5396 25.2587 23.436 25.3001 23.1255 25.6106Z" fill="#1C1C1C"/>
</svg>
