<svg width="53" height="53" viewBox="0 0 53 53" fill="none" xmlns="http://www.w3.org/2000/svg">
<g clip-path="url(#clip0_101_493)">
<path d="M24.8437 0.196678C22.8976 0.817772 21.4381 2.29805 20.8687 4.23379C20.641 5.01015 20.6307 9.81328 20.8584 10.6518C21.1793 11.8939 21.9453 13.0326 22.9287 13.7779L23.5084 14.2127L23.4773 14.9891L23.4463 15.7654L20.8584 16.6143C19.4402 17.0697 18.0221 17.5873 17.7322 17.7529C17.2043 18.0324 16.2105 18.9744 15.9725 19.4092C15.8586 19.5955 15.8172 19.5748 15.2478 19.0365C14.0471 17.8979 12.9394 17.4631 11.2314 17.4631C9.93749 17.4631 9.18182 17.6598 8.16737 18.2809C7.45311 18.7053 6.46972 19.7404 6.07636 20.465C5.50702 21.5209 5.3828 22.349 5.3828 24.9369C5.3828 26.6346 5.42421 27.4523 5.53807 27.9285C5.84862 29.2328 6.74921 30.6096 7.75331 31.3031L8.17772 31.6033V32.4107V33.2078L5.62089 34.067C4.20272 34.5328 2.84667 35.0193 2.58788 35.1436C1.55272 35.6715 0.621083 36.7791 0.217372 37.9695C0.0413952 38.4768 -1.10101e-05 38.8598 -1.10101e-05 39.8949C-1.10101e-05 41.1682 -1.1012e-05 41.1889 0.26913 41.3959C0.610731 41.665 0.93163 41.6754 1.26288 41.4062C1.50097 41.2199 1.52167 41.1164 1.58378 40.0916C1.65624 38.7562 1.75975 38.3732 2.20487 37.7211C2.78456 36.8516 3.17792 36.6342 5.90038 35.7336L8.38475 34.8951L8.58143 35.2781C8.82987 35.7646 9.34745 36.2408 9.93749 36.5514C10.6 36.9033 11.8629 36.9033 12.5254 36.5514C13.1154 36.2408 13.633 35.7646 13.8814 35.2781L14.0781 34.8951L16.5625 35.7336C19.285 36.6445 19.6783 36.8516 20.2683 37.7211C20.4443 38.0006 20.5996 38.249 20.5996 38.2904C20.5996 38.3318 20.0406 38.5389 19.3471 38.7562C17.9289 39.2117 17.1422 39.6775 16.4693 40.4332C15.6412 41.3752 15.2168 42.5242 15.2168 43.8596V44.6152H10.6103H6.0039V43.5387C6.0039 42.6174 5.97284 42.4311 5.78651 42.193C5.50702 41.8307 4.89628 41.8203 4.57538 42.1619C4.36835 42.3793 4.34765 42.5139 4.34765 43.5076V44.6152H2.95018H1.55272V44.3047C1.55272 43.6525 0.672841 43.3213 0.20702 43.7871C0.0310437 43.9631 -1.10101e-05 44.1287 -1.10101e-05 44.9154C-1.10101e-05 46.4164 -0.817785 46.2715 7.87753 46.2715H15.2168V49.408C15.2168 52.4203 15.2271 52.5549 15.4238 52.7723L15.6412 53H26.4896H37.3381L37.5555 52.7619C37.7521 52.5549 37.7832 52.3996 37.7832 51.6957C37.7832 50.6812 37.6072 50.4121 36.9551 50.4121C36.4685 50.4121 36.1269 50.7227 36.1269 51.1574V51.4473H34.7812H33.4355V49.1803C33.4355 47.8035 33.3941 46.7994 33.3217 46.5924C33.125 46.0334 32.5453 45.8885 32.0484 46.2818L31.7793 46.4889V48.9732V51.4473H26.5H21.2207V48.9732V46.4889L20.9516 46.2818C20.4547 45.8885 19.875 46.0334 19.6783 46.5924C19.6059 46.7994 19.5644 47.8035 19.5644 49.1803V51.4473H18.2187H16.8627L16.8937 47.1721C16.9248 43.0832 16.9351 42.8865 17.1422 42.4311C17.4113 41.8617 17.9289 41.251 18.4258 40.9404C18.9433 40.6195 23.6326 39.0668 23.6844 39.2117C23.7672 39.4602 24.3365 40.1641 24.6678 40.4125C25.6822 41.1889 27.3178 41.1889 28.3322 40.4125C28.6635 40.1641 29.2328 39.4602 29.3156 39.2117C29.357 39.0875 33.5908 40.4539 34.3775 40.8473C34.9469 41.1268 35.5576 41.7789 35.8578 42.4311C36.0545 42.8658 36.0752 43.135 36.1269 45.402C36.1787 47.6793 36.1994 47.9277 36.3754 48.1244C36.6549 48.435 37.2656 48.4143 37.5555 48.1037C37.7521 47.8967 37.7832 47.7414 37.7832 47.0686V46.2715H45.1225C53.8178 46.2715 53 46.4164 53 44.9154C53 44.1287 52.9689 43.9631 52.793 43.7871C52.3271 43.3213 51.4473 43.6525 51.4473 44.3047V44.6152H50.0498H48.6523V43.4973C48.6523 42.4621 48.6316 42.3586 48.4142 42.1516C48.0623 41.8203 47.493 41.841 47.2135 42.193C47.0271 42.4311 46.9961 42.6174 46.9961 43.5387V44.6152H42.3896H37.7832V43.8596C37.7832 42.5242 37.3588 41.3752 36.5307 40.4332C35.8578 39.6672 35.04 39.191 33.6322 38.7459C32.9594 38.5285 32.4004 38.3215 32.4004 38.2904C32.4004 38.249 32.5557 38.0006 32.742 37.7211C33.3217 36.8516 33.715 36.6445 36.4375 35.7336L38.9219 34.8951L39.1185 35.2781C39.367 35.7646 39.8846 36.2408 40.4746 36.5514C41.1371 36.9033 42.4 36.9033 43.0625 36.5514C43.6525 36.2408 44.1701 35.7646 44.4185 35.2781L44.6152 34.8951L47.0996 35.7336C49.8221 36.6342 50.2154 36.8516 50.7951 37.7211C51.2402 38.3732 51.3437 38.7562 51.4162 40.0916C51.4783 41.1164 51.499 41.2199 51.7371 41.4062C52.0683 41.6754 52.3892 41.665 52.7412 41.3959L53.0207 41.1682L52.9793 39.7086C52.9482 38.2697 52.9379 38.2387 52.5652 37.4416C52.1098 36.4996 51.2506 35.568 50.4535 35.1746C50.174 35.0297 48.7973 34.5328 47.3894 34.067L44.8223 33.2078V32.4107V31.6033L45.2467 31.3031C46.2508 30.6096 47.1514 29.2328 47.4619 27.9285C47.5758 27.4523 47.6172 26.6346 47.6172 24.9369C47.6172 22.349 47.493 21.5209 46.9236 20.465C46.5303 19.7404 45.5469 18.7053 44.8326 18.2809C43.8182 17.6598 43.0625 17.4631 41.7685 17.4631C40.0605 17.4631 38.9529 17.8979 37.7521 19.0365C37.1828 19.5748 37.1414 19.5955 37.0275 19.4092C36.7894 18.9744 35.7957 18.0324 35.2678 17.7529C34.9779 17.5873 33.5701 17.0697 32.1416 16.6039L29.5537 15.7551L29.5226 14.9787L29.4916 14.2023L30.0195 13.8193C31.0029 13.0947 31.8207 11.8836 32.1416 10.6518C32.3693 9.81328 32.359 5.01015 32.1312 4.23379C31.5723 2.3291 30.1851 0.890232 28.3322 0.258789C27.3488 -0.0621109 25.7547 -0.0931664 24.8437 0.196678ZM28.2598 2.03926C29.1189 2.46367 29.8332 3.17793 30.2576 4.03711L30.5889 4.70996V7.45312V10.1963L30.2576 10.8898C29.4605 12.5875 27.6283 13.5709 25.8582 13.2603C24.4711 13.0223 23.3428 12.1631 22.7424 10.8898L22.4111 10.1963L22.3801 7.58769C22.349 5.02051 22.3594 4.9584 22.5975 4.34766C23.0633 3.19863 23.8707 2.38086 25.0197 1.90469C25.5373 1.6873 25.7547 1.65625 26.6035 1.67695C27.473 1.70801 27.6697 1.74941 28.2598 2.03926ZM27.1728 14.9477L27.8457 14.8441V15.7758C27.8457 16.842 27.6697 17.2561 27.1314 17.5459C26.5 17.8668 25.7236 17.6598 25.3613 17.049C25.1957 16.7902 25.1543 16.5314 25.1543 15.7758V14.8441L25.8271 14.9477C26.2619 15.0098 26.7381 15.0098 27.1728 14.9477ZM23.8603 17.8668C24.1502 18.4051 24.8851 19.0055 25.4855 19.2125C26.7795 19.6369 28.4564 19.0779 29.0465 18.0117C29.1189 17.8668 29.2225 17.6908 29.2742 17.6184C29.4191 17.401 34.098 18.933 34.6984 19.3885C35.6818 20.1441 36.2305 21.2828 36.0338 22.1627C35.9717 22.4111 35.9199 23.6326 35.9199 24.8645V27.1211H34.1291H32.3383L32.2244 26.3861C32.0484 25.2371 31.4273 24.0984 30.5371 23.26C29.3363 22.1213 28.1148 21.6348 26.5 21.6348C24.8851 21.6348 23.6637 22.1213 22.4629 23.26C21.5726 24.0984 20.9516 25.2371 20.7756 26.3861L20.6617 27.1211H18.8709H17.0801V24.8645C17.0801 23.6326 17.0283 22.4111 16.9662 22.1627C16.7695 21.3035 17.2871 20.1959 18.2498 19.4195C18.55 19.1814 19.2746 18.8916 21.0447 18.3016C22.3697 17.8668 23.498 17.5045 23.5498 17.5045C23.6119 17.4941 23.7465 17.6598 23.8603 17.8668ZM12.0285 19.1607C13.6019 19.492 14.958 20.817 15.3203 22.3801C15.4756 23.0633 15.4445 26.9658 15.2789 27.5869C14.8441 29.2432 13.4467 30.5061 11.8318 30.7234C9.72011 31.0029 7.85682 29.7918 7.23573 27.7215C7.03905 27.09 7.0287 26.8105 7.05975 24.6678L7.09081 22.3076L7.42206 21.6141C8.00175 20.3822 9.05761 19.492 10.2998 19.1918C10.9726 19.0262 11.3557 19.0158 12.0285 19.1607ZM42.5656 19.1607C43.8596 19.4299 44.9775 20.3408 45.5779 21.6141L45.9092 22.3076L45.9402 24.585C45.992 27.6904 45.8057 28.4254 44.6773 29.5537C42.3586 31.8725 38.3939 30.6717 37.6797 27.4316C37.5969 27.0486 37.5658 26.117 37.5969 24.585L37.6279 22.3076L37.9592 21.6141C38.5389 20.3822 39.5947 19.492 40.8369 19.1918C41.5098 19.0262 41.8928 19.0158 42.5656 19.1607ZM28.1873 23.6223C29.0051 24.0053 29.8435 24.823 30.2576 25.6615L30.5889 26.3447V29.1396V31.9346L30.2887 32.5557C29.6986 33.7668 28.4978 34.657 27.1418 34.9055C25.4441 35.2264 23.5187 34.2016 22.7113 32.5557L22.4111 31.9346V29.1396V26.3447L22.6906 25.7547C23.1771 24.7092 24.2123 23.7879 25.2889 23.4359C26.0135 23.1979 27.4627 23.291 28.1873 23.6223ZM20.7238 30.5061C20.7652 32.1934 20.7756 32.2658 21.0965 33.0318C21.4898 33.9531 22.2041 34.8848 22.9598 35.4437L23.5084 35.8475L23.4773 36.6238L23.4463 37.4002L22.9287 37.5865C22.6492 37.69 22.3594 37.7729 22.3076 37.7729C22.2455 37.7832 22.0902 37.5348 21.9453 37.2346C21.6244 36.5617 20.5996 35.5162 19.9267 35.1746C19.6369 35.0297 18.2601 34.5328 16.8523 34.067L14.2851 33.2078V32.4107V31.6033L14.7096 31.3031C15.31 30.8891 15.9517 30.1437 16.3451 29.4088L16.6764 28.7773H18.6846H20.6824L20.7238 30.5061ZM36.5928 29.3156C36.9758 30.0609 37.5037 30.6924 38.1662 31.1996L38.7148 31.624V32.4211V33.2078L36.158 34.067C34.7398 34.5328 33.3631 35.0297 33.0732 35.1746C32.4004 35.5162 31.3756 36.5617 31.0547 37.2346C30.9098 37.5348 30.7545 37.7832 30.6924 37.7729C30.6406 37.7729 30.3611 37.69 30.0713 37.5865L29.5537 37.4002L29.5226 36.6238L29.4916 35.8475L30.0713 35.4127C30.7234 34.9262 31.3652 34.1498 31.7379 33.4148C32.1726 32.5557 32.2969 31.8518 32.2969 30.2576V28.7773H34.3051H36.3133L36.5928 29.3156ZM12.6289 33.1561C12.6289 34.067 12.4736 34.5432 12.0596 34.8641C11.6455 35.1953 11.159 35.2574 10.7035 35.0297C10.0514 34.6984 9.89608 34.3982 9.85468 33.301L9.81327 32.3486H11.2211H12.6289V33.1561ZM43.1453 33.301C43.1039 34.3982 42.9486 34.6984 42.2965 35.0297C41.841 35.2574 41.3545 35.1953 40.9404 34.8641C40.5264 34.5432 40.3711 34.067 40.3711 33.1561V32.3486H41.7789H43.1867L43.1453 33.301ZM27.8457 37.452C27.8457 38.4457 27.7008 38.8287 27.1935 39.1289C26.5621 39.5223 25.7443 39.3152 25.3613 38.6838C25.1957 38.425 25.1543 38.1662 25.1543 37.4727V36.5928H26.5H27.8457V37.452Z" fill="black"/>
</g>
<defs>
<clipPath id="clip0_101_493">
<rect width="53" height="53" fill="white"/>
</clipPath>
</defs>
</svg>
