<svg width="85" height="82" viewBox="0 0 85 82" fill="none" xmlns="http://www.w3.org/2000/svg">
<path d="M25.4745 54.8076L18.9298 72.6521H14.5837L8.03898 54.8076H11.8738L16.7823 68.9963L21.6652 54.8076H25.4745ZM33.9094 72.8822C32.5459 72.8822 31.3188 72.5839 30.228 71.9874C29.1372 71.3738 28.2765 70.5131 27.6459 69.4053C27.0323 68.2975 26.7256 67.0192 26.7256 65.5705C26.7256 64.1218 27.0409 62.8436 27.6715 61.7358C28.3191 60.6279 29.1969 59.7758 30.3047 59.1792C31.4125 58.5657 32.6482 58.2589 34.0116 58.2589C35.3751 58.2589 36.6108 58.5657 37.7186 59.1792C38.8264 59.7758 39.6956 60.6279 40.3263 61.7358C40.9739 62.8436 41.2977 64.1218 41.2977 65.5705C41.2977 67.0192 40.9654 68.2975 40.3007 69.4053C39.653 70.5131 38.7668 71.3738 37.6419 71.9874C36.5341 72.5839 35.2899 72.8822 33.9094 72.8822ZM33.9094 69.7632C34.557 69.7632 35.1621 69.6098 35.7245 69.3031C36.304 68.9792 36.7642 68.502 37.105 67.8714C37.4459 67.2408 37.6163 66.4738 37.6163 65.5705C37.6163 64.2241 37.2584 63.193 36.5426 62.4771C35.8438 61.7443 34.9831 61.3778 33.9605 61.3778C32.9379 61.3778 32.0772 61.7443 31.3784 62.4771C30.6967 63.193 30.3558 64.2241 30.3558 65.5705C30.3558 66.917 30.6882 67.9566 31.3529 68.6895C32.0346 69.4053 32.8868 69.7632 33.9094 69.7632ZM43.0028 65.545C43.0028 64.1304 43.2925 62.8777 43.872 61.7869C44.4685 60.6791 45.2696 59.8184 46.2752 59.2048C47.2807 58.5912 48.3885 58.2844 49.5986 58.2844C50.6042 58.2844 51.4905 58.4804 52.2574 58.8724C53.0414 59.2474 53.672 59.7331 54.1492 60.3297V58.489H57.7539V79.4013H54.1492V70.7091C53.672 71.3227 53.0329 71.834 52.2319 72.2431C51.4308 72.6521 50.5275 72.8566 49.5219 72.8566C48.3289 72.8566 47.2296 72.5498 46.224 71.9363C45.2355 71.3057 44.4515 70.4364 43.872 69.3286C43.2925 68.2208 43.0028 66.9596 43.0028 65.545ZM54.1492 65.5705C54.1492 64.7013 53.9703 63.9514 53.6124 63.3208C53.2545 62.6902 52.7858 62.213 52.2063 61.8891C51.6439 61.5653 51.0388 61.4034 50.3912 61.4034C49.7605 61.4034 49.1555 61.5653 48.576 61.8891C48.0136 62.213 47.5534 62.6902 47.1955 63.3208C46.8376 63.9344 46.6586 64.6758 46.6586 65.545C46.6586 66.4142 46.8376 67.1726 47.1955 67.8203C47.5534 68.4509 48.0136 68.9281 48.576 69.2519C49.1555 69.5758 49.7605 69.7377 50.3912 69.7377C51.0388 69.7377 51.6439 69.5758 52.2063 69.2519C52.7858 68.9281 53.2545 68.4509 53.6124 67.8203C53.9703 67.1897 54.1492 66.4398 54.1492 65.5705ZM60.3292 65.5194C60.3292 64.0878 60.6105 62.818 61.1729 61.7102C61.7524 60.6024 62.5278 59.7502 63.4993 59.1537C64.4878 58.5571 65.5871 58.2589 66.7972 58.2589C67.8539 58.2589 68.7743 58.4719 69.5583 58.898C70.3593 59.3241 70.9985 59.861 71.4757 60.5086V58.489H75.0804V72.6521H71.4757V70.5813C71.0155 71.246 70.3764 71.7999 69.5583 72.2431C68.7572 72.6691 67.8284 72.8822 66.7717 72.8822C65.5786 72.8822 64.4878 72.5754 63.4993 71.9618C62.5278 71.3483 61.7524 70.4876 61.1729 69.3798C60.6105 68.2549 60.3292 66.9681 60.3292 65.5194ZM71.4757 65.5705C71.4757 64.7013 71.3052 63.9599 70.9644 63.3464C70.6235 62.7158 70.1633 62.2385 69.5838 61.9147C69.0044 61.5738 68.3823 61.4034 67.7176 61.4034C67.0529 61.4034 66.4393 61.5653 65.8769 61.8891C65.3145 62.213 64.8543 62.6902 64.4964 63.3208C64.1555 63.9344 63.9851 64.6672 63.9851 65.5194C63.9851 66.3716 64.1555 67.1215 64.4964 67.7691C64.8543 68.3998 65.3145 68.8855 65.8769 69.2264C66.4564 69.5672 67.0699 69.7377 67.7176 69.7377C68.3823 69.7377 69.0044 69.5758 69.5838 69.2519C70.1633 68.9111 70.6235 68.4338 70.9644 67.8203C71.3052 67.1897 71.4757 66.4398 71.4757 65.5705ZM82.1551 53.7338V72.6521H78.576V53.7338H82.1551Z" fill="white"/>
<path fill-rule="evenodd" clip-rule="evenodd" d="M7.61903 44.964C7.54301 44.382 7.46076 44.0315 7.45774 43.6804C7.44346 42.1051 7.40103 40.5275 7.47121 38.9555C7.51103 38.0649 7.11364 37.5441 6.37777 37.2585C2.97538 35.938 1.12275 33.329 0.287532 29.9107C0.0699296 29.0198 0.0258865 28.0697 0.0218643 27.1464C-0.00166568 21.7504 -0.0115197 16.3542 0.0196525 10.9582C0.0345347 8.38398 0.673464 5.97608 2.34027 3.94124C4.34414 1.49493 6.97588 0.103645 10.1046 0.0527637C16.739 -0.0552328 23.3765 0.0406976 30.0125 0.0127432C34.8476 -0.00777013 39.2554 3.10643 40.4753 7.79795C40.664 8.52355 40.8164 9.28375 40.82 10.0287C40.848 15.9272 40.7704 21.8272 40.855 27.7248C40.9306 32.9969 36.8135 37.2555 32.1733 37.8023C30.1945 38.0354 28.1802 37.9976 26.1814 38.0215C23.3998 38.0545 20.6168 38.0702 17.8363 38.0084C16.8287 37.9861 16.051 38.3079 15.2928 38.914C12.8216 40.8905 10.325 42.8353 7.61903 44.964ZM22.1322 19.7385C22.1322 15.6547 22.133 11.5712 22.1316 7.48763C22.1312 6.31274 21.5631 5.66054 20.542 5.65149C19.5041 5.64224 18.9174 6.28318 18.9154 7.43092C18.914 8.20077 18.9188 8.97062 18.9148 9.74048C18.8768 17.0661 18.8376 24.392 18.798 31.7175C18.7913 32.9567 19.3496 33.6019 20.4368 33.6049C21.562 33.6083 22.131 33.0004 22.1314 31.7887C22.1326 27.7719 22.132 23.7553 22.1322 19.7385ZM29.368 19.758C29.368 17.6474 29.4026 15.5355 29.3416 13.4264C29.3279 12.9502 29.1063 12.2646 28.7576 12.0655C28.2884 11.7976 27.5805 11.7842 27.0156 11.8859C26.1946 12.0341 25.9969 12.7827 25.9855 13.5043C25.9561 15.38 25.9764 17.2566 25.9758 19.1328C25.9752 21.4445 25.9507 23.7567 25.9813 26.0681C25.9971 27.2729 26.627 27.8137 27.815 27.7697C28.8236 27.7321 29.3637 27.1185 29.3658 25.9898C29.3694 23.9128 29.3668 21.8353 29.368 19.758ZM14.8924 19.7892C14.8924 17.5116 14.9005 15.234 14.8886 12.9564C14.8838 12.0201 14.3385 11.5068 13.3837 11.4837C12.4286 11.4608 11.6851 12.0416 11.6825 12.8951C11.6682 17.4167 11.6774 21.9385 11.6748 26.46C11.6742 27.4716 12.4921 27.9106 13.3239 27.9587C14.2179 28.0102 14.8878 27.3156 14.8906 26.421C14.8968 24.2104 14.8924 21.9998 14.8924 19.7892ZM35.8077 20.0719C35.8077 19.6042 35.7848 19.135 35.8126 18.6686C35.8671 17.7551 35.3036 17.2958 34.5482 17.1442C33.7759 16.9891 33.0803 17.3696 33.0049 18.1789C32.8926 19.3833 32.9294 20.6089 32.9934 21.8206C33.0435 22.765 33.7592 22.9897 34.5619 22.9372C35.3824 22.8833 35.8041 22.4056 35.8071 21.5757C35.8089 21.0745 35.8075 20.5733 35.8077 20.0719Z" fill="white"/>
</svg>
