<svg width="50" height="50" viewBox="0 0 50 50" fill="none" xmlns="http://www.w3.org/2000/svg">
<mask id="mask0_1_28" style="mask-type:luminance" maskUnits="userSpaceOnUse" x="0" y="0" width="50" height="50">
<path d="M50 0H0V50H50V0Z" fill="white"/>
</mask>
<g mask="url(#mask0_1_28)">
<path fill-rule="evenodd" clip-rule="evenodd" d="M0.109863 50.1104C0.109863 33.4437 0.109863 16.777 0.109863 0.110352C16.7765 0.110352 33.4432 0.110352 50.1099 0.110352C50.1099 16.777 50.1099 33.4437 50.1099 50.1104C33.4432 50.1104 16.7765 50.1104 0.109863 50.1104ZM16.3386 5.50683C14.5407 5.50683 12.7429 5.5152 10.945 5.50462C8.78663 5.49196 6.95865 6.2609 5.5266 7.86663C4.47308 9.04813 3.83178 10.4134 3.84511 12.0602C3.8744 15.6741 3.85403 19.2884 3.85414 22.9024C3.85414 23.0307 3.83596 23.1633 3.8614 23.2867C4.3027 25.4269 5.36118 27.1379 7.32704 28.199C7.62561 28.3602 7.72198 28.5576 7.71405 28.8917C7.69081 29.8634 7.69544 30.8362 7.7092 31.8083C7.71889 32.4923 8.17572 32.898 8.85303 32.939C9.37892 32.9708 9.80986 32.811 10.2122 32.4921C11.3716 31.5729 12.5558 30.684 13.695 29.7407C14.2555 29.2767 14.8159 29.0366 15.571 29.0594C17.4406 29.1156 19.3131 29.0646 21.1841 29.0814C23.1104 29.0987 24.8559 28.5844 26.3273 27.3205C27.8146 26.0428 28.7214 24.4379 28.7372 22.4378C28.7627 19.1542 28.7125 15.8696 28.756 12.5865C28.7816 10.6537 28.1247 9.03194 26.8061 7.66079C25.4555 6.25628 23.8028 5.51487 21.8422 5.50793C20.0078 5.50176 18.1732 5.50683 16.3386 5.50683Z" fill="white"/>
<path fill-rule="evenodd" clip-rule="evenodd" d="M16.3388 5.50691C18.1734 5.50691 20.008 5.50185 21.8426 5.50834C23.8031 5.51528 25.4559 6.25669 26.8064 7.66121C28.125 9.03224 28.782 10.6542 28.7563 12.5869C28.7128 15.8701 28.7632 19.1546 28.7375 22.4382C28.7217 24.4383 27.8149 26.0433 26.3276 27.3209C24.8562 28.5849 23.1107 29.0991 21.1844 29.0818C19.3134 29.0651 17.4408 29.1161 15.5713 29.0598C14.8162 29.037 14.2558 29.2771 13.6953 29.7412C12.5561 30.6844 11.372 31.5734 10.2125 32.4925C9.81018 32.8114 9.37934 32.9712 8.85335 32.9394C8.17615 32.8984 7.71932 32.4927 7.70952 31.8087C7.69575 30.8366 7.69112 29.8639 7.71436 28.8922C7.72229 28.558 7.62604 28.3607 7.32736 28.1994C5.36139 27.1382 4.30302 25.4272 3.86172 23.2871C3.83628 23.1637 3.85445 23.0311 3.85445 22.9028C3.85434 19.2889 3.87471 15.6745 3.84542 12.0607C3.83209 10.4139 4.47339 9.04843 5.52692 7.86704C6.95886 6.26132 8.78694 5.49226 10.9453 5.50504C12.7431 5.51528 14.541 5.50691 16.3388 5.50691ZM9.23264 31.4407C10.7144 30.2749 12.0817 29.2099 13.4351 28.1276C13.8503 27.7957 14.2761 27.6195 14.8279 27.6317C16.3506 27.6656 17.8746 27.6569 19.3978 27.6388C20.4924 27.6257 21.5955 27.6465 22.6791 27.5188C25.2203 27.2192 27.4748 24.8872 27.4334 22.0002C27.387 18.7706 27.4296 15.5396 27.4143 12.3094C27.4123 11.9015 27.3288 11.4853 27.2255 11.0879C26.5574 8.5187 24.1437 6.8133 21.4959 6.82453C17.8618 6.83995 14.227 6.78731 10.5939 6.84645C8.88055 6.87431 7.43925 7.63621 6.342 8.97585C5.42923 10.0901 5.07934 11.4088 5.07119 12.8185C5.05412 15.7734 5.05952 18.7285 5.0724 21.6835C5.0746 22.1891 5.09872 22.7093 5.21789 23.1972C5.67515 25.0691 6.68969 26.4979 8.55302 27.221C8.95599 27.3774 9.17361 27.6626 9.15181 28.1503C9.11337 29.0112 9.13661 29.8751 9.14443 30.7378C9.14608 30.9302 9.19112 31.1221 9.23264 31.4407Z" fill="black"/>
<path fill-rule="evenodd" clip-rule="evenodd" d="M9.23238 31.4405C9.19075 31.1218 9.14571 30.9299 9.14406 30.7376C9.13624 29.8749 9.113 29.011 9.15144 28.1501C9.17324 27.6625 8.95562 27.3772 8.55265 27.2208C6.68943 26.4977 5.6749 25.069 5.21752 23.197C5.09835 22.7092 5.07423 22.1889 5.07203 21.6833C5.05915 18.7283 5.05375 15.7733 5.07082 12.8183C5.07897 11.4086 5.42886 10.09 6.34164 8.97568C7.43899 7.63604 8.88018 6.87414 10.5935 6.84628C14.2267 6.78714 17.8615 6.83967 21.4955 6.82436C24.1433 6.81313 26.5571 8.51852 27.2251 11.0877C27.3284 11.485 27.4119 11.9013 27.4139 12.3093C27.4292 15.5394 27.3867 18.7704 27.433 22C27.4745 24.8871 25.2198 27.2192 22.6787 27.5186C21.5952 27.6463 20.4921 27.6256 19.3975 27.6387C17.8742 27.6567 16.3502 27.6653 14.8275 27.6315C14.2758 27.6193 13.8499 27.7955 13.4347 28.1274C12.0814 29.2098 10.7142 30.2748 9.23238 31.4405ZM17.1801 17.6266C17.1801 15.3902 17.1805 13.154 17.1797 10.9178C17.1795 10.2744 16.8684 9.9172 16.3093 9.91225C15.7409 9.90718 15.4196 10.2582 15.4185 10.8867C15.4177 11.3083 15.4204 11.7299 15.4182 12.1515C15.3974 16.1631 15.3759 20.1749 15.3542 24.1865C15.3506 24.8651 15.6563 25.2184 16.2517 25.2201C16.8678 25.2219 17.1794 24.889 17.1796 24.2255C17.1803 22.0258 17.18 19.8262 17.1801 17.6266ZM21.1425 17.6372C21.1425 16.4814 21.1615 15.3249 21.1281 14.17C21.1206 13.9092 20.9992 13.5337 20.8083 13.4247C20.5513 13.278 20.1637 13.2706 19.8543 13.3263C19.4047 13.4075 19.2965 13.8174 19.2902 14.2126C19.2741 15.2398 19.2852 16.2674 19.2849 17.2948C19.2846 18.5608 19.2712 19.827 19.2879 21.0928C19.2966 21.7526 19.6415 22.0487 20.2921 22.0246C20.8444 22.004 21.1402 21.668 21.1413 21.0499C21.1433 19.9125 21.1419 18.7748 21.1425 17.6372ZM13.2154 17.6543C13.2154 16.4071 13.2198 15.1598 13.2133 13.9126C13.2107 13.3998 12.9121 13.1187 12.3892 13.1061C11.8662 13.0935 11.459 13.4116 11.4576 13.879C11.4498 16.3551 11.4549 18.8313 11.4534 21.3074C11.4531 21.8614 11.901 22.1018 12.3565 22.1281C12.846 22.1563 13.2129 21.7759 13.2144 21.286C13.2178 20.0755 13.2154 18.8649 13.2154 17.6543ZM24.6691 17.8092C24.6691 17.553 24.6565 17.2961 24.6717 17.0407C24.7015 16.5404 24.393 16.2889 23.9793 16.2059C23.5564 16.1209 23.1754 16.3293 23.1341 16.7725C23.0727 17.4321 23.0928 18.1032 23.1279 18.7668C23.1553 19.2839 23.5473 19.407 23.9868 19.3782C24.4361 19.3487 24.6671 19.0871 24.6687 18.6326C24.6697 18.3582 24.6689 18.0837 24.6691 17.8092Z" fill="white"/>
<path fill-rule="evenodd" clip-rule="evenodd" d="M17.1802 17.6265C17.1801 19.8261 17.1804 22.0257 17.18 24.2254C17.1799 24.8889 16.8682 25.2219 16.252 25.22C15.6566 25.2183 15.3508 24.865 15.3545 24.1864C15.3762 20.1747 15.3976 16.1629 15.4185 12.1514C15.4207 11.7298 15.4181 11.3082 15.4188 10.8866C15.4199 10.2581 15.7412 9.9071 16.3096 9.91216C16.8687 9.91712 17.1797 10.2743 17.1801 10.9177C17.1806 13.1539 17.1802 15.3901 17.1802 17.6265Z" fill="black"/>
<path fill-rule="evenodd" clip-rule="evenodd" d="M21.1425 17.6369C21.1421 18.7744 21.1437 19.9121 21.1416 21.0497C21.1405 21.6676 20.8447 22.0037 20.2924 22.0243C19.6418 22.0484 19.2969 21.7523 19.2882 21.0925C19.2714 19.8267 19.2849 18.5606 19.2852 17.2946C19.2855 16.2672 19.2745 15.2395 19.2905 14.2123C19.2967 13.8172 19.405 13.4073 19.8546 13.3261C20.1639 13.2703 20.5515 13.2777 20.8085 13.4244C20.9995 13.5334 21.1209 13.9088 21.1284 14.1697C21.1617 15.3244 21.1428 16.4809 21.1425 17.6369Z" fill="black"/>
<path fill-rule="evenodd" clip-rule="evenodd" d="M13.2157 17.6541C13.2157 18.8646 13.2181 20.0752 13.2145 21.2858C13.2129 21.7757 12.8462 22.156 12.3565 22.1279C11.9011 22.1015 11.4531 21.8611 11.4534 21.3071C11.4549 18.831 11.4498 16.3548 11.4576 13.8787C11.4592 13.4114 11.8663 13.0933 12.3892 13.1058C12.9121 13.1185 13.2107 13.3995 13.2133 13.9123C13.22 15.1595 13.2157 16.4068 13.2157 17.6541Z" fill="black"/>
<path fill-rule="evenodd" clip-rule="evenodd" d="M24.6691 17.8093C24.6691 18.0839 24.6698 18.3583 24.6688 18.6329C24.6672 19.0874 24.4362 19.349 23.9869 19.3785C23.5474 19.4072 23.1554 19.2843 23.128 18.767C23.0929 18.1035 23.0728 17.4323 23.1343 16.7727C23.1756 16.3297 23.5565 16.1212 23.9794 16.2061C24.3931 16.2892 24.7017 16.5407 24.6718 17.0409C24.6565 17.2962 24.6691 17.5531 24.6691 17.8093Z" fill="black"/>
</g>
</svg>
